# Max2Obj Version 4.0 Mar 10th, 2001
#
mtllib ./Cubes.mtl
g
# object CubeFish to come ...
#
v  -0.023000 -0.025000 0.023000
v  0.023000 -0.025000 0.023000
v  -0.023000 -0.025000 -0.023000
v  0.023000 -0.025000 -0.023000
v  -0.023000 -0.024732 0.024000
v  -0.023500 -0.024732 0.023866
v  -0.023866 -0.024732 0.023500
v  -0.024000 -0.024732 0.023000
v  -0.024000 -0.024732 -0.023000
v  -0.023866 -0.024732 -0.023500
v  -0.023500 -0.024732 -0.023866
v  -0.023000 -0.024732 -0.024000
v  0.023000 -0.024732 -0.024000
v  0.023500 -0.024732 -0.023866
v  0.023866 -0.024732 -0.023500
v  0.024000 -0.024732 -0.023000
v  0.024000 -0.024732 0.023000
v  0.023866 -0.024732 0.023500
v  0.023500 -0.024732 0.023866
v  0.023000 -0.024732 0.024000
v  -0.023000 -0.024000 0.024732
v  -0.023866 -0.024000 0.024500
v  -0.024500 -0.024000 0.023866
v  -0.024732 -0.024000 0.023000
v  -0.024732 -0.024000 -0.023000
v  -0.024500 -0.024000 -0.023866
v  -0.023866 -0.024000 -0.024500
v  -0.023000 -0.024000 -0.024732
v  0.023000 -0.024000 -0.024732
v  0.023866 -0.024000 -0.024500
v  0.024500 -0.024000 -0.023866
v  0.024732 -0.024000 -0.023000
v  0.024732 -0.024000 0.023000
v  0.024500 -0.024000 0.023866
v  0.023866 -0.024000 0.024500
v  0.023000 -0.024000 0.024732
v  -0.023000 -0.023000 0.025000
v  -0.024000 -0.023000 0.024732
v  -0.024732 -0.023000 0.024000
v  -0.025000 -0.023000 0.023000
v  -0.025000 -0.023000 -0.023000
v  -0.024732 -0.023000 -0.024000
v  -0.024000 -0.023000 -0.024732
v  -0.023000 -0.023000 -0.025000
v  0.023000 -0.023000 -0.025000
v  0.024000 -0.023000 -0.024732
v  0.024732 -0.023000 -0.024000
v  0.025000 -0.023000 -0.023000
v  0.025000 -0.023000 0.023000
v  0.024732 -0.023000 0.024000
v  0.024000 -0.023000 0.024732
v  0.023000 -0.023000 0.025000
v  -0.023000 0.023000 0.025000
v  -0.024000 0.023000 0.024732
v  -0.024732 0.023000 0.024000
v  -0.025000 0.023000 0.023000
v  -0.025000 0.023000 -0.023000
v  -0.024732 0.023000 -0.024000
v  -0.024000 0.023000 -0.024732
v  -0.023000 0.023000 -0.025000
v  0.023000 0.023000 -0.025000
v  0.024000 0.023000 -0.024732
v  0.024732 0.023000 -0.024000
v  0.025000 0.023000 -0.023000
v  0.025000 0.023000 0.023000
v  0.024732 0.023000 0.024000
v  0.024000 0.023000 0.024732
v  0.023000 0.023000 0.025000
v  -0.023000 0.024000 0.024732
v  -0.023866 0.024000 0.024500
v  -0.024500 0.024000 0.023866
v  -0.024732 0.024000 0.023000
v  -0.024732 0.024000 -0.023000
v  -0.024500 0.024000 -0.023866
v  -0.023866 0.024000 -0.024500
v  -0.023000 0.024000 -0.024732
v  0.023000 0.024000 -0.024732
v  0.023866 0.024000 -0.024500
v  0.024500 0.024000 -0.023866
v  0.024732 0.024000 -0.023000
v  0.024732 0.024000 0.023000
v  0.024500 0.024000 0.023866
v  0.023866 0.024000 0.024500
v  0.023000 0.024000 0.024732
v  -0.023000 0.024732 0.024000
v  -0.023500 0.024732 0.023866
v  -0.023866 0.024732 0.023500
v  -0.024000 0.024732 0.023000
v  -0.024000 0.024732 -0.023000
v  -0.023866 0.024732 -0.023500
v  -0.023500 0.024732 -0.023866
v  -0.023000 0.024732 -0.024000
v  0.023000 0.024732 -0.024000
v  0.023500 0.024732 -0.023866
v  0.023866 0.024732 -0.023500
v  0.024000 0.024732 -0.023000
v  0.024000 0.024732 0.023000
v  0.023866 0.024732 0.023500
v  0.023500 0.024732 0.023866
v  0.023000 0.024732 0.024000
v  0.023000 0.025000 -0.023000
v  -0.023000 0.025000 -0.023000
v  0.023000 0.025000 0.023000
v  -0.023000 0.025000 0.023000
# 104 vertices

vt  0.412405 0.379151 0.000000
vt  0.583441 0.379151 0.000000
vt  0.412405 0.208115 0.000000
vt  0.583441 0.208115 0.000000
vt  0.412405 0.382869 0.000000
vt  0.410546 0.382371 0.000000
vt  0.409185 0.381010 0.000000
vt  0.408687 0.379151 0.000000
vt  0.408687 0.208115 0.000000
vt  0.409185 0.206256 0.000000
vt  0.410546 0.204895 0.000000
vt  0.412405 0.204397 0.000000
vt  0.583441 0.204397 0.000000
vt  0.585300 0.204895 0.000000
vt  0.586661 0.206256 0.000000
vt  0.587160 0.208115 0.000000
vt  0.587160 0.379151 0.000000
vt  0.586661 0.381010 0.000000
vt  0.585300 0.382371 0.000000
vt  0.583441 0.382869 0.000000
vt  0.412405 0.385591 0.000000
vt  0.409185 0.384729 0.000000
vt  0.406828 0.382371 0.000000
vt  0.405965 0.379151 0.000000
vt  0.405965 0.208115 0.000000
vt  0.406828 0.204895 0.000000
vt  0.409185 0.202538 0.000000
vt  0.412405 0.201675 0.000000
vt  0.583441 0.201675 0.000000
vt  0.586661 0.202538 0.000000
vt  0.589019 0.204895 0.000000
vt  0.589881 0.208115 0.000000
vt  0.589881 0.379151 0.000000
vt  0.589019 0.382371 0.000000
vt  0.586459 0.192165 0.000000
vt  0.586661 0.384729 0.000000
vt  0.589700 0.192165 0.000000
vt  0.583441 0.385591 0.000000
vt  0.412664 0.201675 0.000000
vt  0.408791 0.383239 0.000000
vt  0.412011 0.383239 0.000000
vt  0.583047 0.383239 0.000000
vt  0.408303 0.192165 0.000000
vt  0.410675 0.192165 0.000000
vt  0.413916 0.192165 0.000000
vt  0.586068 0.192165 0.000000
vt  0.589309 0.192165 0.000000
vt  0.408009 0.382463 0.000000
vt  0.411229 0.382463 0.000000
vt  0.582265 0.382463 0.000000
vt  0.592073 0.192165 0.000000
vt  0.408694 0.192165 0.000000
vt  0.411066 0.192165 0.000000
vt  0.414307 0.192165 0.000000
vt  0.586459 0.188423 0.000000
vt  0.586267 0.383239 0.000000
vt  0.408293 0.379521 0.000000
vt  0.591682 0.192165 0.000000
vt  0.407434 0.188423 0.000000
vt  0.410174 0.188423 0.000000
vt  0.413916 0.188423 0.000000
vt  0.586068 0.188423 0.000000
vt  0.589811 0.188423 0.000000
vt  0.585485 0.382463 0.000000
vt  0.407511 0.378745 0.000000
vt  0.590201 0.188423 0.000000
vt  0.592941 0.188423 0.000000
vt  0.407825 0.188423 0.000000
vt  0.409444 0.202538 0.000000
vt  0.407087 0.204895 0.000000
vt  0.406224 0.208115 0.000000
vt  0.406224 0.379151 0.000000
vt  0.407087 0.382371 0.000000
vt  0.409444 0.384729 0.000000
vt  0.412664 0.385591 0.000000
vt  0.583700 0.385591 0.000000
vt  0.586920 0.384729 0.000000
vt  0.589278 0.382371 0.000000
vt  0.590140 0.379151 0.000000
vt  0.590140 0.208115 0.000000
vt  0.589278 0.204895 0.000000
vt  0.586920 0.202538 0.000000
vt  0.583700 0.201675 0.000000
vt  0.412664 0.204397 0.000000
vt  0.410805 0.204895 0.000000
vt  0.409444 0.206256 0.000000
vt  0.408946 0.208115 0.000000
vt  0.408946 0.379151 0.000000
vt  0.409444 0.381010 0.000000
vt  0.410805 0.382371 0.000000
vt  0.412664 0.382869 0.000000
vt  0.583700 0.382869 0.000000
vt  0.585559 0.382371 0.000000
vt  0.586920 0.381010 0.000000
vt  0.587418 0.379151 0.000000
vt  0.587418 0.208115 0.000000
vt  0.586920 0.206256 0.000000
vt  0.585559 0.204895 0.000000
vt  0.583700 0.204397 0.000000
vt  0.583700 0.379151 0.000000
vt  0.412664 0.379151 0.000000
vt  0.583700 0.208115 0.000000
vt  0.412664 0.208115 0.000000
vt  0.592550 0.188423 0.000000
vt  0.407434 0.016271 0.000000
vt  0.411229 0.378745 0.000000
vt  0.582265 0.378745 0.000000
vt  0.410565 0.188423 0.000000
vt  0.414307 0.188423 0.000000
vt  0.410174 0.016271 0.000000
vt  0.413916 0.016271 0.000000
vt  0.585984 0.378745 0.000000
vt  0.588705 0.378745 0.000000
vt  0.586459 0.016271 0.000000
vt  0.590201 0.016271 0.000000
vt  0.407511 0.207709 0.000000
vt  0.411229 0.207709 0.000000
vt  0.582265 0.207709 0.000000
vt  0.585984 0.207709 0.000000
vt  0.592941 0.016271 0.000000
vt  0.407825 0.016271 0.000000
vt  0.412011 0.379521 0.000000
vt  0.583047 0.379521 0.000000
vt  0.586068 0.016271 0.000000
vt  0.589811 0.016271 0.000000
vt  0.410565 0.016271 0.000000
vt  0.414307 0.016271 0.000000
vt  0.586765 0.379521 0.000000
vt  0.589487 0.379521 0.000000
vt  0.592550 0.016271 0.000000
vt  0.408303 0.012528 0.000000
vt  0.408293 0.208485 0.000000
vt  0.412011 0.208485 0.000000
vt  0.583047 0.208485 0.000000
vt  0.586765 0.208485 0.000000
vt  0.586459 0.012528 0.000000
vt  0.589700 0.012528 0.000000
vt  0.592073 0.012528 0.000000
vt  0.408694 0.012528 0.000000
vt  0.411066 0.012528 0.000000
vt  0.414307 0.012528 0.000000
vt  0.410675 0.012528 0.000000
vt  0.413916 0.012528 0.000000
vt  0.586068 0.012528 0.000000
vt  0.589309 0.012528 0.000000
vt  0.591682 0.012528 0.000000
vt  0.408009 0.203991 0.000000
vt  0.411229 0.203991 0.000000
vt  0.582265 0.203991 0.000000
vt  0.585485 0.203991 0.000000
vt  0.408791 0.204767 0.000000
vt  0.412011 0.204767 0.000000
vt  0.583047 0.204767 0.000000
vt  0.586267 0.204767 0.000000
# 154 texture vertices

vn  -0.130973 -0.986511 0.098197
vn  0.112180 -0.982356 0.149643
vn  -0.112173 -0.982362 -0.149609
vn  0.130967 -0.986514 -0.098175
vn  -0.076393 -0.864219 0.497282
vn  -0.305486 -0.838478 0.451258
vn  -0.490200 -0.838454 0.238114
vn  -0.544363 -0.837178 0.052936
vn  -0.497279 -0.864219 -0.076410
vn  -0.451291 -0.838449 -0.305516
vn  -0.238130 -0.838424 -0.490244
vn  -0.052940 -0.837163 -0.544385
vn  0.076467 -0.864204 -0.497297
vn  0.305476 -0.838428 -0.451356
vn  0.490203 -0.838464 -0.238075
vn  0.544364 -0.837178 -0.052912
vn  0.497273 -0.864220 0.076439
vn  0.451288 -0.838468 0.305467
vn  0.238026 -0.838473 0.490211
vn  0.052942 -0.837150 0.544405
vn  -0.119271 -0.498163 0.858841
vn  -0.442316 -0.501659 0.743434
vn  -0.754802 -0.501687 0.422592
vn  -0.861023 -0.496954 0.108060
vn  -0.858794 -0.498229 -0.119337
vn  -0.743362 -0.501702 -0.442389
vn  -0.422594 -0.501634 -0.754836
vn  -0.108116 -0.496830 -0.861087
vn  0.119380 -0.498165 -0.858825
vn  0.442347 -0.501654 -0.743419
vn  0.754769 -0.501671 -0.422670
vn  0.861027 -0.496953 -0.108025
vn  0.858790 -0.498229 0.119367
vn  0.743427 -0.501645 0.442344
vn  0.422582 -0.501665 0.754822
vn  0.107956 -0.496959 0.861033
vn  -0.130225 -0.130226 0.982895
vn  -0.496891 -0.130593 0.857930
vn  -0.859316 -0.130643 0.494478
vn  -0.983272 -0.128789 0.128798
vn  -0.982902 -0.130211 -0.130190
vn  -0.857873 -0.130677 -0.496968
vn  -0.494334 -0.130721 -0.859387
vn  -0.128754 -0.128746 -0.983284
vn  0.130116 -0.130116 -0.982924
vn  0.496893 -0.130692 -0.857914
vn  0.859296 -0.130696 -0.494499
vn  0.983276 -0.128788 -0.128767
vn  0.982898 -0.130211 0.130220
vn  0.857858 -0.130676 0.496995
vn  0.494491 -0.130590 0.859316
vn  0.128746 -0.128754 0.983284
vn  -0.128746 0.128754 0.983284
vn  -0.494491 0.130589 0.859316
vn  -0.857858 0.130675 0.496995
vn  -0.982898 0.130210 0.130220
vn  -0.983277 0.128788 -0.128767
vn  -0.859296 0.130695 -0.494499
vn  -0.496893 0.130691 -0.857914
vn  -0.130116 0.130116 -0.982924
vn  0.128754 0.128745 -0.983284
vn  0.494334 0.130721 -0.859387
vn  0.857873 0.130676 -0.496968
vn  0.982902 0.130211 -0.130190
vn  0.983272 0.128788 0.128798
vn  0.859316 0.130643 0.494478
vn  0.496891 0.130593 0.857930
vn  0.130225 0.130225 0.982895
vn  -0.107956 0.496959 0.861033
vn  -0.422582 0.501665 0.754822
vn  -0.743427 0.501645 0.442344
vn  -0.858790 0.498229 0.119367
vn  -0.861027 0.496953 -0.108025
vn  -0.754769 0.501670 -0.422670
vn  -0.442347 0.501654 -0.743419
vn  -0.119380 0.498165 -0.858825
vn  0.108116 0.496829 -0.861087
vn  0.422594 0.501634 -0.754836
vn  0.743362 0.501702 -0.442389
vn  0.858794 0.498228 -0.119337
vn  0.861023 0.496953 0.108060
vn  0.754803 0.501686 0.422592
vn  0.442317 0.501658 0.743434
vn  0.119271 0.498163 0.858841
vn  -0.052942 0.837150 0.544405
vn  -0.238026 0.838473 0.490210
vn  -0.451288 0.838468 0.305467
vn  -0.497272 0.864221 0.076438
vn  -0.544364 0.837179 -0.052912
vn  -0.490202 0.838464 -0.238075
vn  -0.305476 0.838429 -0.451355
vn  -0.076467 0.864205 -0.497296
vn  0.052939 0.837163 -0.544385
vn  0.238130 0.838424 -0.490244
vn  0.451291 0.838449 -0.305515
vn  0.497279 0.864219 -0.076410
vn  0.544363 0.837178 0.052936
vn  0.490199 0.838455 0.238114
vn  0.305486 0.838478 0.451257
vn  0.076393 0.864219 0.497281
vn  0.112173 0.982362 -0.149608
vn  -0.130966 0.986514 -0.098174
vn  0.130972 0.986511 0.098197
vn  -0.112179 0.982356 0.149642
# 104 vertex normals

g CubeFish
usemtl Cubes
s 1
f 1/1/1 3/3/3 4/4/4
f 1/1/1 4/4/4 2/2/2
f 1/1/1 5/5/5 6/6/6
f 1/1/1 6/6/6 7/7/7
f 1/1/1 7/7/7 8/8/8
f 1/1/1 8/8/8 9/9/9
f 1/1/1 9/9/9 3/3/3
f 3/3/3 9/9/9 10/10/10
f 3/3/3 10/10/10 11/11/11
f 3/3/3 11/11/11 12/12/12
f 3/3/3 12/12/12 13/13/13
f 3/3/3 13/13/13 4/4/4
f 4/4/4 13/13/13 14/14/14
f 4/4/4 14/14/14 15/15/15
f 4/4/4 15/15/15 16/16/16
f 4/4/4 16/16/16 17/17/17
f 4/4/4 17/17/17 2/2/2
f 2/2/2 17/17/17 18/18/18
f 2/2/2 18/18/18 19/19/19
f 2/2/2 19/19/19 20/20/20
f 2/2/2 20/20/20 5/5/5
f 2/2/2 5/5/5 1/1/1
f 5/5/5 21/21/21 22/22/22
f 5/5/5 22/22/22 6/6/6
f 6/6/6 22/22/22 23/23/23
f 6/6/6 23/23/23 7/7/7
f 7/7/7 23/23/23 24/24/24
f 7/7/7 24/24/24 8/8/8
f 8/8/8 24/24/24 25/25/25
f 8/8/8 25/25/25 9/9/9
f 9/9/9 25/25/25 26/26/26
f 9/9/9 26/26/26 10/10/10
f 10/10/10 26/26/26 27/27/27
f 10/10/10 27/27/27 11/11/11
f 11/11/11 27/27/27 28/28/28
f 11/11/11 28/28/28 12/12/12
f 12/12/12 28/28/28 29/29/29
f 12/12/12 29/29/29 13/13/13
f 13/13/13 29/29/29 30/30/30
f 13/13/13 30/30/30 14/14/14
f 14/14/14 30/30/30 31/31/31
f 14/14/14 31/31/31 15/15/15
f 15/15/15 31/31/31 32/32/32
f 15/15/15 32/32/32 16/16/16
f 16/16/16 32/32/32 33/33/33
f 16/16/16 33/33/33 17/17/17
f 17/17/17 33/33/33 34/34/34
f 17/17/17 34/34/34 18/18/18
f 18/18/18 34/34/34 35/36/35
f 18/18/18 35/36/35 19/19/19
f 19/19/19 35/36/35 36/38/36
f 19/19/19 36/38/36 20/20/20
f 20/20/20 36/38/36 21/21/21
f 20/20/20 21/21/21 5/5/5
f 21/35/21 37/55/37 38/66/38
f 21/35/21 38/66/38 22/37/22
f 22/37/22 38/66/38 39/67/39
f 22/37/22 39/67/39 23/51/23
f 23/40/23 39/57/39 40/122/40
f 23/40/23 40/122/40 24/41/24
f 24/41/24 40/122/40 41/123/41
f 24/41/24 41/123/41 25/42/25
f 25/42/25 41/123/41 42/128/42
f 25/42/25 42/128/42 26/56/26
f 26/56/26 42/128/42 43/129/43
f 26/43/26 43/60/43 27/44/27
f 27/44/27 43/60/43 44/61/44
f 27/44/27 44/61/44 28/45/28
f 28/45/28 44/61/44 45/62/45
f 28/45/28 45/62/45 29/46/29
f 29/46/29 45/62/45 46/63/46
f 29/46/29 46/63/46 30/47/30
f 30/47/30 46/63/46 47/104/47
f 30/47/30 47/104/47 31/58/31
f 31/48/31 47/65/47 48/106/48
f 31/48/31 48/106/48 32/49/32
f 32/49/32 48/106/48 49/107/49
f 32/49/32 49/107/49 33/50/33
f 33/50/33 49/107/49 50/112/50
f 33/50/33 50/112/50 34/64/34
f 34/64/34 50/112/50 51/113/51
f 34/52/34 51/108/51 35/53/35
f 35/53/35 51/108/51 52/109/52
f 35/53/35 52/109/52 36/54/36
f 36/54/36 52/109/52 37/55/37
f 36/54/36 37/55/37 21/35/21
f 37/55/37 53/114/53 54/115/54
f 37/55/37 54/115/54 38/66/38
f 38/66/38 54/115/54 55/120/55
f 38/66/38 55/120/55 39/67/39
f 39/57/39 55/132/55 56/133/56
f 39/57/39 56/133/56 40/122/40
f 40/122/40 56/133/56 57/134/57
f 40/122/40 57/134/57 41/123/41
f 41/123/41 57/134/57 58/135/58
f 41/123/41 58/135/58 42/128/42
f 42/59/42 58/105/58 59/110/59
f 42/59/42 59/110/59 43/60/43
f 43/60/43 59/110/59 60/111/60
f 43/60/43 60/111/60 44/61/44
f 44/61/44 60/111/60 61/124/61
f 44/61/44 61/124/61 45/62/45
f 45/62/45 61/124/61 62/125/62
f 45/62/45 62/125/62 46/63/46
f 46/63/46 62/125/62 63/130/63
f 46/63/46 63/130/63 47/104/47
f 47/65/47 63/116/63 64/117/64
f 47/65/47 64/117/64 48/106/48
f 48/106/48 64/117/64 65/118/65
f 48/106/48 65/118/65 49/107/49
f 49/107/49 65/118/65 66/119/66
f 49/107/49 66/119/66 50/112/50
f 50/68/50 66/121/66 67/126/67
f 50/68/50 67/126/67 51/108/51
f 51/108/51 67/126/67 68/127/68
f 51/108/51 68/127/68 52/109/52
f 52/109/52 68/127/68 53/114/53
f 52/109/52 53/114/53 37/55/37
f 53/114/53 69/136/69 70/137/70
f 53/114/53 70/137/70 54/115/54
f 54/115/54 70/137/70 71/138/71
f 54/115/54 71/138/71 55/120/55
f 55/132/55 71/151/71 72/152/72
f 55/132/55 72/152/72 56/133/56
f 56/133/56 72/152/72 73/153/73
f 56/133/56 73/153/73 57/134/57
f 57/134/57 73/153/73 74/154/74
f 57/134/57 74/154/74 58/135/58
f 58/105/58 74/131/74 75/142/75
f 58/105/58 75/142/75 59/110/59
f 59/110/59 75/142/75 76/143/76
f 59/110/59 76/143/76 60/111/60
f 60/111/60 76/143/76 77/144/77
f 60/111/60 77/144/77 61/124/61
f 61/124/61 77/144/77 78/145/78
f 61/124/61 78/145/78 62/125/62
f 62/125/62 78/145/78 79/146/79
f 62/125/62 79/146/79 63/130/63
f 63/116/63 79/147/79 80/148/80
f 63/116/63 80/148/80 64/117/64
f 64/117/64 80/148/80 81/149/81
f 64/117/64 81/149/81 65/118/65
f 65/118/65 81/149/81 82/150/82
f 65/118/65 82/150/82 66/119/66
f 66/121/66 82/139/82 83/140/83
f 66/121/66 83/140/83 67/126/67
f 67/126/67 83/140/83 84/141/84
f 67/126/67 84/141/84 68/127/68
f 68/127/68 84/141/84 69/136/69
f 68/127/68 69/136/69 53/114/53
f 69/39/69 85/84/85 86/85/86
f 69/39/69 86/85/86 70/69/70
f 70/69/70 86/85/86 87/86/87
f 70/69/70 87/86/87 71/70/71
f 71/70/71 87/86/87 88/87/88
f 71/70/71 88/87/88 72/71/72
f 72/71/72 88/87/88 89/88/89
f 72/71/72 89/88/89 73/72/73
f 73/72/73 89/88/89 90/89/90
f 73/72/73 90/89/90 74/73/74
f 74/73/74 90/89/90 91/90/91
f 74/73/74 91/90/91 75/74/75
f 75/74/75 91/90/91 92/91/92
f 75/74/75 92/91/92 76/75/76
f 76/75/76 92/91/92 93/92/93
f 76/75/76 93/92/93 77/76/77
f 77/76/77 93/92/93 94/93/94
f 77/76/77 94/93/94 78/77/78
f 78/77/78 94/93/94 95/94/95
f 78/77/78 95/94/95 79/78/79
f 79/78/79 95/94/95 96/95/96
f 79/78/79 96/95/96 80/79/80
f 80/79/80 96/95/96 97/96/97
f 80/79/80 97/96/97 81/80/81
f 81/80/81 97/96/97 98/97/98
f 81/80/81 98/97/98 82/81/82
f 82/81/82 98/97/98 99/98/99
f 82/81/82 99/98/99 83/82/83
f 83/82/83 99/98/99 100/99/100
f 83/82/83 100/99/100 84/83/84
f 84/83/84 100/99/100 85/84/85
f 84/83/84 85/84/85 69/39/69
f 85/84/85 104/103/104 86/85/86
f 86/85/86 104/103/104 87/86/87
f 87/86/87 104/103/104 88/87/88
f 88/87/88 104/103/104 102/101/102
f 88/87/88 102/101/102 89/88/89
f 89/88/89 102/101/102 90/89/90
f 90/89/90 102/101/102 91/90/91
f 91/90/91 102/101/102 92/91/92
f 92/91/92 102/101/102 101/100/101
f 92/91/92 101/100/101 93/92/93
f 93/92/93 101/100/101 94/93/94
f 94/93/94 101/100/101 95/94/95
f 95/94/95 101/100/101 96/95/96
f 96/95/96 101/100/101 103/102/103
f 96/95/96 103/102/103 97/96/97
f 97/96/97 103/102/103 98/97/98
f 98/97/98 103/102/103 99/98/99
f 99/98/99 103/102/103 100/99/100
f 100/99/100 103/102/103 104/103/104
f 100/99/100 104/103/104 85/84/85
f 103/102/103 101/100/101 102/101/102
f 103/102/103 102/101/102 104/103/104
# 204 faces

g
