# This file uses centimeters as units for non-parametric coordinates.

mtllib Blade_instrument_tip.mtl
g default
v 0.034800 -0.039231 -0.758443
v -0.000115 -0.026340 -0.758443
v 0.034800 -0.033625 -0.896835
v -0.009368 -0.019663 -0.896835
v 0.034800 -0.027277 -1.020766
v -0.011299 -0.012992 -1.020766
v 0.034800 -0.017906 -1.114702
v 0.006891 -0.007162 -1.114702
v 0.034800 0.000000 -1.204968
v -0.023372 0.000103 -0.758443
v -0.052398 0.000294 -0.896835
v -0.061175 0.000405 -1.020766
v -0.018411 0.000270 -1.114702
v 0.034800 0.000000 -1.204968
v -0.000115 0.026825 -0.758443
v -0.009368 0.021052 -0.896835
v -0.011299 0.014883 -1.020766
v 0.006891 0.008377 -1.114702
v 0.034800 0.000000 -1.204968
v 0.034800 0.039739 -0.758443
v 0.034800 0.035068 -0.896835
v 0.034800 0.029173 -1.020766
v 0.034800 0.018981 -1.114702
v 0.034800 0.000000 -1.204968
v 0.070037 0.026825 -0.758443
v 0.079874 0.021052 -0.896835
v 0.082027 0.014883 -1.020766
v 0.063213 0.008377 -1.114702
v 0.034800 0.000000 -1.204968
v 0.094261 0.000103 -0.758443
v 0.125623 0.000294 -0.896835
v 0.135287 0.000405 -1.020766
v 0.090025 0.000270 -1.114702
v 0.034800 0.000000 -1.204968
v 0.070037 -0.026340 -0.758443
v 0.079874 -0.019663 -0.896835
v 0.082027 -0.012992 -1.020766
v 0.063213 -0.007162 -1.114702
vn 0.102909 -0.994101 -0.034247
vn -0.480588 -0.876807 -0.015631
vn -0.011912 -0.998998 -0.043137
vn -0.422994 -0.906078 -0.009963
vn 0.006565 -0.996887 -0.078567
vn -0.315018 -0.946699 -0.067261
vn -0.064699 -0.987421 -0.144268
vn -0.305452 -0.941680 -0.141199
vn -0.353261 -0.917644 -0.182032
vn -0.598110 -0.799614 0.053683
vn -0.368017 -0.929588 0.020741
vn -0.266166 -0.961175 -0.072793
vn -0.278907 -0.949530 -0.143543
vn -0.278143 -0.946929 -0.161130
vn -0.744948 0.648352 0.157138
vn -0.522552 0.851396 0.045429
vn -0.549145 0.833475 0.061316
vn -0.350694 0.936306 -0.018575
vn -0.331487 0.942308 -0.046611
vn -0.291860 0.952738 -0.084305
vn -0.293268 0.945161 -0.143749
vn -0.320061 0.936362 -0.144181
vn -0.300160 0.936801 -0.179744
vn -0.107234 0.993839 -0.028020
vn 0.006506 0.999263 -0.037827
vn -0.012069 0.996679 -0.080530
vn 0.058535 0.986383 -0.153695
vn -0.348507 0.917246 -0.192877
vn 0.474223 0.880361 -0.008843
vn 0.415856 0.909420 -0.004364
vn 0.310895 0.947909 -0.069369
vn 0.304626 0.940172 -0.152580
vn 0.343058 0.919212 -0.193290
vn 0.588542 0.806173 0.060850
vn 0.363740 0.931138 0.025999
vn 0.270489 0.959468 -0.079100
vn 0.285774 0.945132 -0.158301
vn 0.284850 0.942072 -0.177089
vn 0.727394 -0.666354 0.163920
vn 0.503306 -0.863011 0.043544
vn 0.520405 -0.851750 0.060828
vn 0.330366 -0.943567 -0.023242
vn 0.296630 -0.953954 -0.044525
vn 0.270835 -0.959183 -0.081343
vn 0.257231 -0.957720 -0.128860
vn 0.303752 -0.943452 -0.132792
vn 0.263740 -0.951481 -0.158511
vn 0.347759 -0.919664 -0.182433
s 1
g Mesh1
usemtl phong2SG
f 1//1 2//2 3//3
f 3//3 2//2 4//4
f 3//3 4//4 5//5
f 5//5 4//4 6//6
f 5//5 6//6 7//7
f 7//7 6//6 8//8
f 7//7 8//8 9//9
f 2//2 10//10 4//4
f 4//4 10//10 11//11
f 4//4 11//11 6//6
f 6//6 11//11 12//12
f 6//6 12//12 8//8
f 8//8 12//12 13//13
f 8//8 13//13 9//14
s 2
f 10//15 15//16 11//17
f 11//17 15//16 16//18
f 11//17 16//18 12//19
f 12//19 16//18 17//20
f 12//19 17//20 13//21
f 13//21 17//20 18//22
f 13//21 18//22 9//23
f 15//16 20//24 16//18
f 16//18 20//24 21//25
f 16//18 21//25 17//20
f 17//20 21//25 22//26
f 17//20 22//26 18//22
f 18//22 22//26 23//27
f 18//22 23//27 9//28
f 20//24 25//29 21//25
f 21//25 25//29 26//30
f 21//25 26//30 22//26
f 22//26 26//30 27//31
f 22//26 27//31 23//27
f 23//27 27//31 28//32
f 23//27 28//32 9//33
f 25//29 30//34 26//30
f 26//30 30//34 31//35
f 26//30 31//35 27//31
f 27//31 31//35 32//36
f 27//31 32//36 28//32
f 28//32 32//36 33//37
f 28//32 33//37 9//38
s 1
f 30//39 35//40 31//41
f 31//41 35//40 36//42
f 31//41 36//42 32//43
f 32//43 36//42 37//44
f 32//43 37//44 33//45
f 33//45 37//44 38//46
f 33//45 38//46 9//47
f 35//40 1//1 36//42
f 36//42 1//1 3//3
f 36//42 3//3 37//44
f 37//44 3//3 5//5
f 37//44 5//5 38//46
f 38//46 5//5 7//7
f 38//46 7//7 9//48
