# This file uses centimeters as units for non-parametric coordinates.

mtllib Blade_instrument_handle.mtl
g default
v 0.034800 -0.060774 3.750000
v -0.008173 -0.042974 3.750000
v 0.034800 -0.060774 2.572917
v -0.008173 -0.042974 2.572917
v 0.034800 -0.060774 1.833333
v -0.008173 -0.042974 1.833333
v 0.034800 -0.060774 1.260417
v -0.008173 -0.042974 1.260417
v 0.034800 -0.060774 0.750000
v -0.008173 -0.042974 0.750000
v 0.034800 -0.060584 0.265627
v -0.008039 -0.042839 0.265627
v 0.034800 -0.059254 -0.124985
v -0.007099 -0.041899 -0.124985
v 0.034800 -0.055947 -0.359347
v -0.004760 -0.039560 -0.359347
v 0.034800 -0.051025 -0.500064
v -0.001280 -0.036080 -0.500064
v 0.034800 -0.045182 -0.626311
v 0.001955 -0.031774 -0.626311
v 0.034800 -0.039231 -0.758443
v -0.000115 -0.026340 -0.758443
v -0.025974 0.000000 3.750000
v -0.025974 0.000000 2.572917
v -0.025974 0.000000 1.833333
v -0.025974 0.000000 1.260417
v -0.025974 0.000000 0.750000
v -0.025784 0.000000 0.265627
v -0.024454 0.000000 -0.124985
v -0.021147 0.000000 -0.359347
v -0.016225 0.000000 -0.500064
v -0.012750 0.000013 -0.626311
v -0.023372 0.000103 -0.758443
v -0.008173 0.042974 3.750000
v -0.008173 0.042974 2.572917
v -0.008173 0.042974 1.833333
v -0.008173 0.042974 1.260417
v -0.008173 0.042974 0.750000
v -0.008039 0.042839 0.265627
v -0.007099 0.041899 -0.124985
v -0.004760 0.039560 -0.359347
v -0.001280 0.036080 -0.500064
v 0.001955 0.031834 -0.626311
v -0.000115 0.026825 -0.758443
v 0.034800 0.060774 3.750000
v 0.034800 0.060774 2.572917
v 0.034800 0.060774 1.833333
v 0.034800 0.060774 1.260417
v 0.034800 0.060774 0.750000
v 0.034800 0.060584 0.265627
v 0.034800 0.059254 -0.124985
v 0.034800 0.055946 -0.359347
v 0.034800 0.051024 -0.500064
v 0.034800 0.045246 -0.626311
v 0.034800 0.039739 -0.758443
v 0.077774 0.042974 3.750000
v 0.077774 0.042974 2.572917
v 0.077774 0.042974 1.833333
v 0.077774 0.042974 1.260417
v 0.077774 0.042974 0.750000
v 0.077639 0.042839 0.265627
v 0.076699 0.041899 -0.124985
v 0.074360 0.039560 -0.359347
v 0.070880 0.036080 -0.500064
v 0.067686 0.031834 -0.626311
v 0.070037 0.026825 -0.758443
v 0.095574 0.000000 3.750000
v 0.095574 0.000000 2.572917
v 0.095574 0.000000 1.833333
v 0.095574 0.000000 1.260417
v 0.095574 0.000000 0.750000
v 0.095384 0.000000 0.265627
v 0.094054 0.000000 -0.124985
v 0.090747 0.000000 -0.359347
v 0.085825 0.000000 -0.500064
v 0.082511 0.000013 -0.626311
v 0.094261 0.000103 -0.758443
v 0.077774 -0.042974 3.750000
v 0.077774 -0.042974 2.572917
v 0.077774 -0.042974 1.833333
v 0.077774 -0.042974 1.260417
v 0.077774 -0.042974 0.750000
v 0.077639 -0.042839 0.265627
v 0.076699 -0.041899 -0.124985
v 0.074360 -0.039560 -0.359347
v 0.070880 -0.036080 -0.500064
v 0.067686 -0.031774 -0.626311
v 0.070037 -0.026340 -0.758443
vn 0.136768 -0.990603 0.000000
vn -0.603745 -0.797177 0.000000
vn -0.000004 -1.000000 0.000000
vn -0.707103 -0.707111 0.000000
vn -0.000004 -1.000000 0.000000
vn -0.707103 -0.707111 0.000000
vn -0.000004 -1.000000 0.000000
vn -0.707103 -0.707111 0.000000
vn -0.000001 -1.000000 -0.000196
vn -0.707104 -0.707110 -0.000196
vn -0.000001 -0.999998 -0.001898
vn -0.707104 -0.707107 -0.001898
vn -0.000005 -0.999962 -0.008758
vn -0.707084 -0.707075 -0.008758
vn -0.000029 -0.999699 -0.024535
vn -0.706916 -0.706872 -0.024534
vn -0.000952 -0.999187 -0.040315
vn -0.705984 -0.707139 -0.039253
vn -0.007143 -0.999029 -0.043473
vn -0.691252 -0.721880 -0.032549
vn -0.134505 -0.990049 -0.041376
vn -0.704724 -0.709432 0.008310
vn -0.990602 -0.136778 -0.000000
vn -1.000000 -0.000000 -0.000000
vn -1.000000 0.000000 -0.000000
vn -1.000000 0.000000 -0.000000
vn -1.000000 0.000000 -0.000196
vn -0.999998 0.000003 -0.001898
vn -0.999962 0.000005 -0.008758
vn -0.999699 0.000029 -0.024535
vn -0.999423 -0.006711 -0.033287
vn -0.863304 -0.504572 0.010685
vn -0.749550 -0.659240 0.059807
vn -0.797170 0.603754 0.000000
vn -0.707103 0.707111 0.000000
vn -0.707103 0.707111 0.000000
vn -0.707103 0.707111 0.000000
vn -0.707103 0.707111 -0.000196
vn -0.707106 0.707105 -0.001898
vn -0.707075 0.707084 -0.008758
vn -0.706867 0.706921 -0.024535
vn -0.701883 0.711378 -0.036064
vn -0.913296 0.407282 0.003451
vn -0.655469 0.755055 -0.015868
vn -0.838960 0.543347 0.030329
vn -0.506057 0.862051 -0.027819
vn -0.136776 0.990602 0.000000
vn -0.000004 1.000000 0.000000
vn -0.000004 1.000000 0.000000
vn -0.000004 1.000000 0.000000
vn -0.000006 1.000000 -0.000196
vn -0.000001 0.999998 -0.001899
vn 0.000008 0.999962 -0.008759
vn 0.000033 0.999699 -0.024536
vn 0.000857 0.999196 -0.040087
vn 0.006250 0.999111 -0.041686
vn 0.132490 0.990461 -0.037866
vn 0.603746 0.797177 0.000000
vn 0.707107 0.707107 0.000000
vn 0.707107 0.707107 0.000000
vn 0.707107 0.707107 0.000000
vn 0.707109 0.707105 -0.000197
vn 0.707106 0.707105 -0.001899
vn 0.707082 0.707078 -0.008759
vn 0.706908 0.706880 -0.024535
vn 0.705946 0.707192 -0.038980
vn 0.690271 0.722915 -0.030338
vn 0.699746 0.714274 0.012962
vn 0.990603 0.136770 -0.000000
vn 1.000000 0.000000 -0.000000
vn 1.000000 -0.000000 -0.000000
vn 1.000000 0.000000 -0.000000
vn 1.000000 0.000003 -0.000196
vn 0.999998 0.000001 -0.001899
vn 0.999962 -0.000005 -0.008758
vn 0.999699 -0.000029 -0.024535
vn 0.999437 0.007157 -0.032778
vn 0.859848 0.510349 0.014344
vn 0.739263 0.670156 0.066196
vn 0.797177 -0.603745 0.000000
vn 0.707107 -0.707107 0.000000
vn 0.707107 -0.707107 0.000000
vn 0.707107 -0.707107 0.000000
vn 0.707105 -0.707109 -0.000197
vn 0.707105 -0.707106 -0.001899
vn 0.707075 -0.707084 -0.008758
vn 0.706872 -0.706916 -0.024534
vn 0.701476 -0.711788 -0.035910
vn 0.912329 -0.409411 0.006158
vn 0.651080 -0.758853 -0.015424
vn 0.830900 -0.555435 0.033115
vn 0.497689 -0.866832 -0.030132
s 1
g Mesh
usemtl phong1SG
f 1//1 2//2 3//3
f 3//3 2//2 4//4
f 3//3 4//4 5//5
f 5//5 4//4 6//6
f 5//5 6//6 7//7
f 7//7 6//6 8//8
f 7//7 8//8 9//9
f 9//9 8//8 10//10
f 9//9 10//10 11//11
f 11//11 10//10 12//12
f 11//11 12//12 13//13
f 13//13 12//12 14//14
f 13//13 14//14 15//15
f 15//15 14//14 16//16
f 15//15 16//16 17//17
f 17//17 16//16 18//18
f 17//17 18//18 19//19
f 19//19 18//18 20//20
f 19//19 20//20 21//21
f 21//21 20//20 22//22
f 2//2 23//23 4//4
f 4//4 23//23 24//24
f 4//4 24//24 6//6
f 6//6 24//24 25//25
f 6//6 25//25 8//8
f 8//8 25//25 26//26
f 8//8 26//26 10//10
f 10//10 26//26 27//27
f 10//10 27//27 12//12
f 12//12 27//27 28//28
f 12//12 28//28 14//14
f 14//14 28//28 29//29
f 14//14 29//29 16//16
f 16//16 29//29 30//30
f 16//16 30//30 18//18
f 18//18 30//30 31//31
f 18//18 31//31 20//20
f 20//20 31//31 32//32
f 20//20 32//32 22//22
f 22//22 32//32 33//33
f 23//23 34//34 24//24
f 24//24 34//34 35//35
f 24//24 35//35 25//25
f 25//25 35//35 36//36
f 25//25 36//36 26//26
f 26//26 36//36 37//37
f 26//26 37//37 27//27
f 27//27 37//37 38//38
f 27//27 38//38 28//28
f 28//28 38//38 39//39
f 28//28 39//39 29//29
f 29//29 39//39 40//40
f 29//29 40//40 30//30
f 30//30 40//40 41//41
f 30//30 41//41 31//31
f 31//31 41//41 42//42
f 31//31 42//42 32//43
f 32//43 42//42 43//44
f 32//43 43//44 33//45
f 33//45 43//44 44//46
f 34//34 45//47 35//35
f 35//35 45//47 46//48
f 35//35 46//48 36//36
f 36//36 46//48 47//49
f 36//36 47//49 37//37
f 37//37 47//49 48//50
f 37//37 48//50 38//38
f 38//38 48//50 49//51
f 38//38 49//51 39//39
f 39//39 49//51 50//52
f 39//39 50//52 40//40
f 40//40 50//52 51//53
f 40//40 51//53 41//41
f 41//41 51//53 52//54
f 41//41 52//54 42//42
f 42//42 52//54 53//55
f 42//42 53//55 43//44
f 43//44 53//55 54//56
f 43//44 54//56 44//46
f 44//46 54//56 55//57
f 45//47 56//58 46//48
f 46//48 56//58 57//59
f 46//48 57//59 47//49
f 47//49 57//59 58//60
f 47//49 58//60 48//50
f 48//50 58//60 59//61
f 48//50 59//61 49//51
f 49//51 59//61 60//62
f 49//51 60//62 50//52
f 50//52 60//62 61//63
f 50//52 61//63 51//53
f 51//53 61//63 62//64
f 51//53 62//64 52//54
f 52//54 62//64 63//65
f 52//54 63//65 53//55
f 53//55 63//65 64//66
f 53//55 64//66 54//56
f 54//56 64//66 65//67
f 54//56 65//67 55//57
f 55//57 65//67 66//68
f 56//58 67//69 57//59
f 57//59 67//69 68//70
f 57//59 68//70 58//60
f 58//60 68//70 69//71
f 58//60 69//71 59//61
f 59//61 69//71 70//72
f 59//61 70//72 60//62
f 60//62 70//72 71//73
f 60//62 71//73 61//63
f 61//63 71//73 72//74
f 61//63 72//74 62//64
f 62//64 72//74 73//75
f 62//64 73//75 63//65
f 63//65 73//75 74//76
f 63//65 74//76 64//66
f 64//66 74//76 75//77
f 64//66 75//77 65//67
f 65//67 75//77 76//78
f 65//67 76//78 66//68
f 66//68 76//78 77//79
f 67//69 78//80 68//70
f 68//70 78//80 79//81
f 68//70 79//81 69//71
f 69//71 79//81 80//82
f 69//71 80//82 70//72
f 70//72 80//82 81//83
f 70//72 81//83 71//73
f 71//73 81//83 82//84
f 71//73 82//84 72//74
f 72//74 82//84 83//85
f 72//74 83//85 73//75
f 73//75 83//85 84//86
f 73//75 84//86 74//76
f 74//76 84//86 85//87
f 74//76 85//87 75//77
f 75//77 85//87 86//88
f 75//77 86//88 76//89
f 76//89 86//88 87//90
f 76//89 87//90 77//91
f 77//91 87//90 88//92
f 78//80 1//1 79//81
f 79//81 1//1 3//3
f 79//81 3//3 80//82
f 80//82 3//3 5//5
f 80//82 5//5 81//83
f 81//83 5//5 7//7
f 81//83 7//7 82//84
f 82//84 7//7 9//9
f 82//84 9//9 83//85
f 83//85 9//9 11//11
f 83//85 11//11 84//86
f 84//86 11//11 13//13
f 84//86 13//13 85//87
f 85//87 13//13 15//15
f 85//87 15//15 86//88
f 86//88 15//15 17//17
f 86//88 17//17 87//90
f 87//90 17//17 19//19
f 87//90 19//19 88//92
f 88//92 19//19 21//21
