#
# OBJ Model generated by The SIM Group
# http://thesimgroup.org
#
mtllib Eye/eye_shaders.mtl
g Default
usemtl Metal
v  -3.943809 6.781083 -0.040563
vn 0.534986 -0.749306 0.390296
vt 1.000000 0.000000 0.000000
v  -3.385051 6.712535 -0.938064
vn 0.534481 -0.749055 0.391468
vt 1.000000 0.007204 0.000000
v  -3.237236 6.691769 -1.177771
vn 0.530185 -0.746928 0.401251
vt 1.000000 0.014409 0.000000
v  -2.678215 6.545066 -2.143351
vn 0.517345 -0.740247 0.429405
vt 1.000000 0.084435 0.000000
v  -2.370852 6.382445 -2.745228
vn 0.502424 -0.731950 0.460239
vt 1.000000 0.154461 0.000000
v  -1.939132 6.107727 -3.630721
vn 0.497952 -0.730076 0.468009
vt 1.000000 0.292218 0.000000
v  -1.574531 5.884248 -4.371161
vn 0.852421 -0.478556 0.210623
vt 1.000000 0.429974 0.000000
v  -1.579432 5.887077 -4.374570
vn 0.664398 0.534035 -0.522859
vt 1.000000 0.501227 0.000000
v  -1.580132 5.887482 -4.375057
vn 0.329289 0.723788 -0.606383
vt 1.000000 0.572480 0.000000
v  -1.581053 5.888014 -4.373209
vn -0.503013 0.730909 -0.461249
vt 1.000000 0.643734 0.000000
v  -1.587506 5.891739 -4.360271
vn -0.502664 0.731063 -0.461385
vt 1.000000 0.714987 0.000000
v  -1.625545 5.913702 -4.284045
vn -0.501883 0.731350 -0.461779
vt 1.000000 0.857493 0.000000
v  -1.670616 5.939723 -4.194039
vn -0.501235 0.731407 -0.462392
vt 1.000000 1.000000 0.000000
v  -3.982444 6.748357 -0.050434
vn 0.350844 -0.891525 0.286517
vt 0.875000 0.000000 0.000000
v  -3.423686 6.679809 -0.947934
vn 0.240434 -0.944140 0.225367
vt 0.875000 0.007204 0.000000
v  -3.275870 6.659043 -1.187642
vn 0.230342 -0.941379 0.246470
vt 0.875000 0.014409 0.000000
v  -2.716850 6.512339 -2.153221
vn 0.203470 -0.931664 0.301002
vt 0.875000 0.084435 0.000000
v  -2.409487 6.349719 -2.755099
vn 0.177004 -0.918840 0.352709
vt 0.875000 0.154461 0.000000
v  -1.974373 6.073041 -3.647380
vn 0.169888 -0.915895 0.363695
vt 0.875000 0.292218 0.000000
v  -1.586014 5.835846 -4.435336
vn 0.867342 -0.422218 -0.263534
vt 0.875000 0.429974 0.000000
v  -1.589864 5.843463 -4.432306
vn 0.664446 0.556953 -0.498312
vt 0.875000 0.501227 0.000000
v  -1.590415 5.844551 -4.431872
vn 0.223676 0.827783 -0.514533
vt 0.875000 0.572480 0.000000
v  -1.591671 5.845274 -4.429357
vn -0.177889 0.918556 -0.353002
vt 0.875000 0.643734 0.000000
v  -1.600469 5.850339 -4.411750
vn -0.177533 0.918593 -0.353084
vt 0.875000 0.714987 0.000000
v  -1.651231 5.879587 -4.310175
vn -0.176817 0.918549 -0.353558
vt 0.875000 0.857493 0.000000
v  -1.704939 5.910650 -4.202807
vn -0.053958 0.951681 -0.302310
vt 0.875000 1.000000 0.000000
v  -4.028058 6.751898 -0.074263
vn -0.295207 -0.948927 -0.111312
vt 0.750000 0.000000 0.000000
v  -3.469301 6.683351 -0.971764
vn -0.401682 -0.898781 -0.175627
vt 0.750000 0.007204 0.000000
v  -3.321485 6.662584 -1.211471
vn -0.420267 -0.895869 -0.144202
vt 0.750000 0.014409 0.000000
v  -2.762465 6.515881 -2.177051
vn -0.464705 -0.882961 -0.066554
vt 0.750000 0.084435 0.000000
v  -2.455102 6.353260 -2.778928
vn -0.500816 -0.865553 0.001110
vt 0.750000 0.154461 0.000000
v  -2.018220 6.075561 -3.674745
vn -0.508043 -0.861220 0.013897
vt 0.750000 0.292218 0.000000
v  -1.617482 5.831219 -4.487459
vn 0.181452 -0.270047 -0.945595
vt 0.750000 0.429974 0.000000
v  -1.619144 5.839806 -4.477528
vn 0.649700 0.605393 -0.459770
vt 0.750000 0.501227 0.000000
v  -1.619382 5.841033 -4.476111
vn 0.544340 0.789292 -0.284099
vt 0.750000 0.572480 0.000000
v  -1.620800 5.841849 -4.473275
vn 0.499665 0.866218 0.000596
vt 0.750000 0.643734 0.000000
v  -1.630731 5.847564 -4.453431
vn 0.499756 0.866166 0.000611
vt 0.750000 0.714987 0.000000
v  -1.687632 5.880331 -4.339701
vn 0.500018 0.866015 0.000050
vt 0.750000 0.857493 0.000000
v  -1.745461 5.913796 -4.223976
vn 0.598079 0.798553 0.067925
vt 0.750000 1.000000 0.000000
v  -4.053932 6.789631 -0.098092
vn -0.768229 -0.462162 -0.442979
vt 0.625000 0.000000 0.000000
v  -3.495174 6.721083 -0.995592
vn -0.812817 -0.336270 -0.475657
vt 0.625000 0.007204 0.000000
v  -3.347359 6.700317 -1.235300
vn -0.828231 -0.331416 -0.451882
vt 0.625000 0.014409 0.000000
v  -2.788338 6.553613 -2.200880
vn -0.861702 -0.317710 -0.395639
vt 0.625000 0.084435 0.000000
v  -2.480976 6.390993 -2.802757
vn -0.885123 -0.305656 -0.350901
vt 0.625000 0.154461 0.000000
v  -2.045862 6.114315 -3.695038
vn -0.888446 -0.305071 -0.342922
vt 0.625000 0.292218 0.000000
v  -1.657503 5.877120 -4.482994
vn -0.196180 0.422734 -0.884765
vt 0.625000 0.429974 0.000000
v  -1.654346 5.880691 -4.475294
vn 0.654979 0.560995 -0.506249
vt 0.625000 0.501227 0.000000
v  -1.653896 5.881201 -4.474194
vn 0.827826 0.543384 -0.139417
vt 0.625000 0.572480 0.000000
v  -1.655155 5.881927 -4.471681
vn 0.883647 0.305744 0.354525
vt 0.625000 0.643734 0.000000
v  -1.663971 5.887002 -4.454085
vn 0.883646 0.305855 0.354432
vt 0.625000 0.714987 0.000000
v  -1.714811 5.916295 -4.352561
vn 0.883870 0.306095 0.353665
vt 0.625000 0.857493 0.000000
v  -1.768446 5.947317 -4.245146
vn 0.900002 0.177603 0.398063
vt 0.625000 1.000000 0.000000
v  -4.044908 6.839453 -0.107962
vn -0.798429 0.303106 -0.520229
vt 0.500000 0.000000 0.000000
v  -3.486151 6.770904 -1.005463
vn -0.750318 0.433165 -0.499391
vt 0.500000 0.007204 0.000000
v  -3.338335 6.750139 -1.245171
vn -0.751993 0.434033 -0.496106
vt 0.500000 0.014409 0.000000
v  -2.779314 6.603435 -2.210751
vn -0.753553 0.434958 -0.492920
vt 0.500000 0.084435 0.000000
v  -2.471952 6.440815 -2.812628
vn -0.751294 0.433524 -0.497609
vt 0.500000 0.154461 0.000000
v  -2.040232 6.166097 -3.698121
vn -0.750251 0.431943 -0.500548
vt 0.500000 0.292218 0.000000
v  -1.675631 5.942618 -4.438561
vn 0.019927 0.720393 -0.693280
vt 0.500000 0.429974 0.000000
v  -1.670624 5.939728 -4.435365
vn 0.659464 0.522104 -0.540847
vt 0.500000 0.501227 0.000000
v  -1.669908 5.939314 -4.434908
vn 0.986139 0.156051 -0.056369
vt 0.500000 0.572480 0.000000
v  -1.670833 5.939848 -4.433063
vn 0.748919 -0.433748 0.500982
vt 0.500000 0.643734 0.000000
v  -1.677311 5.943588 -4.420142
vn 0.749066 -0.433564 0.500921
vt 0.500000 0.714987 0.000000
v  -1.715461 5.965615 -4.343988
vn 0.749836 -0.433128 0.500146
vt 0.500000 0.857493 0.000000
v  -1.760430 5.991577 -4.253915
vn 0.674915 -0.547499 0.494706
vt 0.500000 1.000000 0.000000
v  -4.006273 6.872178 -0.098092
vn -0.350845 0.891524 -0.286518
vt 0.375000 0.000000 0.000000
v  -3.447516 6.803630 -0.995592
vn -0.240445 0.944137 -0.225372
vt 0.375000 0.007204 0.000000
v  -3.299700 6.782865 -1.235300
vn -0.230341 0.941380 -0.246468
vt 0.375000 0.014409 0.000000
v  -2.740680 6.636160 -2.200880
vn -0.203465 0.931666 -0.301000
vt 0.375000 0.084435 0.000000
v  -2.433317 6.473540 -2.802757
vn -0.176987 0.918816 -0.352779
vt 0.375000 0.154461 0.000000
v  -2.004688 6.200607 -3.682068
vn -0.169780 0.915715 -0.364199
vt 0.375000 0.292218 0.000000
v  -1.661725 5.989621 -4.379232
vn 0.354673 0.795497 -0.491316
vt 0.375000 0.429974 0.000000
v  -1.658239 5.982216 -4.381533
vn 0.665340 0.481485 -0.570521
vt 0.375000 0.501227 0.000000
v  -1.657741 5.981158 -4.381862
vn 0.920825 -0.335868 -0.198176
vt 0.375000 0.572480 0.000000
v  -1.658357 5.981516 -4.380630
vn 0.175172 -0.918475 0.354568
vt 0.375000 0.643734 0.000000
v  -1.662673 5.984021 -4.372012
vn 0.175445 -0.918419 0.354578
vt 0.375000 0.714987 0.000000
v  -1.689095 5.999336 -4.319219
vn 0.176557 -0.918530 0.353738
vt 0.375000 0.857493 0.000000
v  -1.726108 6.020650 -4.245145
vn 0.054601 -0.952001 0.301187
vt 0.375000 1.000000 0.000000
v  -3.960658 6.868638 -0.074263
vn 0.295195 0.948932 0.111303
vt 0.250000 0.000000 0.000000
v  -3.401902 6.800090 -0.971764
vn 0.401671 0.898787 0.175621
vt 0.250000 0.007204 0.000000
v  -3.254086 6.779324 -1.211471
vn 0.420267 0.895869 0.144202
vt 0.250000 0.014409 0.000000
v  -2.695066 6.632619 -2.177051
vn 0.464697 0.882966 0.066548
vt 0.250000 0.084435 0.000000
v  -2.387703 6.470000 -2.778928
vn 0.500827 0.865546 -0.001336
vt 0.250000 0.154461 0.000000
v  -1.960169 6.197699 -3.656047
vn 0.508337 0.861025 -0.015124
vt 0.250000 0.292218 0.000000
v  -1.624875 5.991141 -4.337872
vn 0.681353 0.663581 -0.308899
vt 0.250000 0.429974 0.000000
v  -1.625361 5.983794 -4.343507
vn 0.662341 0.445842 -0.602104
vt 0.250000 0.501227 0.000000
v  -1.625430 5.982744 -4.344312
vn 0.402521 -0.557149 -0.726335
vt 0.250000 0.572480 0.000000
v  -1.625931 5.983036 -4.343307
vn -0.500847 -0.865534 0.001790
vt 0.250000 0.643734 0.000000
v  -1.629438 5.985082 -4.336277
vn -0.500670 -0.865637 0.001525
vt 0.250000 0.714987 0.000000
v  -1.651486 5.997895 -4.292107
vn -0.500058 -0.865992 0.000252
vt 0.250000 0.857493 0.000000
v  -1.685585 6.017504 -4.223977
vn -0.597555 -0.798842 -0.069132
vt 0.250000 1.000000 0.000000
v  -3.934785 6.830905 -0.050434
vn 0.768228 0.462165 0.442977
vt 0.125000 0.000000 0.000000
v  -3.376027 6.762356 -0.947934
vn 0.812820 0.336260 0.475660
vt 0.125000 0.007204 0.000000
v  -3.228212 6.741590 -1.187642
vn 0.828233 0.331407 0.451885
vt 0.125000 0.014409 0.000000
v  -2.669192 6.594887 -2.153222
vn 0.861700 0.317719 0.395636
vt 0.125000 0.084435 0.000000
v  -2.361829 6.432267 -2.755099
vn 0.885203 0.305535 0.350804
vt 0.125000 0.154461 0.000000
v  -1.933200 6.159333 -3.634409
vn 0.888889 0.304389 0.342380
vt 0.125000 0.292218 0.000000
v  -1.590236 5.948348 -4.331573
vn 0.910924 0.389512 -0.136004
vt 0.125000 0.429974 0.000000
v  -1.593757 5.944987 -4.338545
vn 0.656776 0.487017 -0.575726
vt 0.125000 0.501227 0.000000
v  -1.594259 5.944507 -4.339541
vn -0.156160 0.114017 -0.981129
vt 0.125000 0.572480 0.000000
v  -1.594873 5.944864 -4.338308
vn -0.884438 -0.306828 -0.351605
vt 0.125000 0.643734 0.000000
v  -1.599170 5.947358 -4.329677
vn -0.884333 -0.306611 -0.352058
vt 0.125000 0.714987 0.000000
v  -1.625516 5.962628 -4.276832
vn -0.883906 -0.306323 -0.353379
vt 0.125000 0.857493 0.000000
v  -1.662600 5.983982 -4.202807
vn -0.899441 -0.177758 -0.399259
vt 0.125000 1.000000 0.000000
v  -3.943809 6.781083 -0.040563
vn 0.846283 -0.048182 0.530551
vt 0.000000 0.000000 0.000000
v  -3.385052 6.712535 -0.938064
vn 0.847588 -0.048849 0.528402
vt 0.000000 0.007204 0.000000
v  -3.237236 6.691769 -1.177771
vn 0.856416 -0.053372 0.513521
vt 0.000000 0.014409 0.000000
v  -2.678215 6.545066 -2.143351
vn 0.874450 -0.063070 0.480999
vt 0.000000 0.084435 0.000000
v  -2.370852 6.382445 -2.745228
vn 0.885689 -0.069048 0.459116
vt 0.000000 0.154461 0.000000
v  -1.939132 6.107727 -3.630721
vn 0.887374 -0.067770 0.456043
vt 0.000000 0.292218 0.000000
v  -1.574531 5.884248 -4.371161
vn 0.885241 0.382215 -0.265068
vt 0.000000 0.429974 0.000000
v  -1.579432 5.887077 -4.374570
vn 0.660583 0.507680 -0.553074
vt 0.000000 0.501227 0.000000
v  -1.580132 5.887482 -4.375057
vn -0.566879 0.329747 -0.754927
vt 0.000000 0.572480 0.000000
v  -1.581053 5.888014 -4.373209
vn -0.885058 0.067617 -0.460543
vt 0.000000 0.643734 0.000000
v  -1.587506 5.891739 -4.360271
vn -0.884799 0.068125 -0.460966
vt 0.000000 0.714987 0.000000
v  -1.625546 5.913702 -4.284044
vn -0.884173 0.068584 -0.462099
vt 0.000000 0.857493 0.000000
v  -1.670616 5.939723 -4.194039
vn -0.883991 0.068489 -0.462459
vt 0.000000 1.000000 0.000000
f  1/1/1 14/14/14 2/2/2
f  2/2/2 14/14/14 15/15/15
f  2/2/2 15/15/15 3/3/3
f  3/3/3 15/15/15 16/16/16
f  3/3/3 16/16/16 4/4/4
f  4/4/4 16/16/16 17/17/17
f  4/4/4 17/17/17 5/5/5
f  5/5/5 17/17/17 18/18/18
f  5/5/5 18/18/18 6/6/6
f  6/6/6 18/18/18 19/19/19
f  6/6/6 19/19/19 7/7/7
f  7/7/7 19/19/19 20/20/20
f  7/7/7 20/20/20 8/8/8
f  8/8/8 20/20/20 21/21/21
f  8/8/8 21/21/21 9/9/9
f  9/9/9 21/21/21 22/22/22
f  9/9/9 22/22/22 10/10/10
f  10/10/10 22/22/22 23/23/23
f  10/10/10 23/23/23 11/11/11
f  11/11/11 23/23/23 24/24/24
f  11/11/11 24/24/24 12/12/12
f  12/12/12 24/24/24 25/25/25
f  12/12/12 25/25/25 13/13/13
f  13/13/13 25/25/25 26/26/26
f  14/14/14 27/27/27 15/15/15
f  15/15/15 27/27/27 28/28/28
f  15/15/15 28/28/28 16/16/16
f  16/16/16 28/28/28 29/29/29
f  16/16/16 29/29/29 17/17/17
f  17/17/17 29/29/29 30/30/30
f  17/17/17 30/30/30 18/18/18
f  18/18/18 30/30/30 31/31/31
f  18/18/18 31/31/31 19/19/19
f  19/19/19 31/31/31 32/32/32
f  19/19/19 32/32/32 20/20/20
f  20/20/20 32/32/32 33/33/33
f  20/20/20 33/33/33 21/21/21
f  21/21/21 33/33/33 34/34/34
f  21/21/21 34/34/34 22/22/22
f  22/22/22 34/34/34 35/35/35
f  22/22/22 35/35/35 23/23/23
f  23/23/23 35/35/35 36/36/36
f  23/23/23 36/36/36 24/24/24
f  24/24/24 36/36/36 37/37/37
f  24/24/24 37/37/37 25/25/25
f  25/25/25 37/37/37 38/38/38
f  25/25/25 38/38/38 26/26/26
f  26/26/26 38/38/38 39/39/39
f  27/27/27 40/40/40 28/28/28
f  28/28/28 40/40/40 41/41/41
f  28/28/28 41/41/41 29/29/29
f  29/29/29 41/41/41 42/42/42
f  29/29/29 42/42/42 30/30/30
f  30/30/30 42/42/42 43/43/43
f  30/30/30 43/43/43 31/31/31
f  31/31/31 43/43/43 44/44/44
f  31/31/31 44/44/44 32/32/32
f  32/32/32 44/44/44 45/45/45
f  32/32/32 45/45/45 33/33/33
f  33/33/33 45/45/45 46/46/46
f  33/33/33 46/46/46 34/34/34
f  34/34/34 46/46/46 47/47/47
f  34/34/34 47/47/47 35/35/35
f  35/35/35 47/47/47 48/48/48
f  35/35/35 48/48/48 36/36/36
f  36/36/36 48/48/48 49/49/49
f  36/36/36 49/49/49 37/37/37
f  37/37/37 49/49/49 50/50/50
f  37/37/37 50/50/50 38/38/38
f  38/38/38 50/50/50 51/51/51
f  38/38/38 51/51/51 39/39/39
f  39/39/39 51/51/51 52/52/52
f  40/40/40 53/53/53 41/41/41
f  41/41/41 53/53/53 54/54/54
f  41/41/41 54/54/54 42/42/42
f  42/42/42 54/54/54 55/55/55
f  42/42/42 55/55/55 43/43/43
f  43/43/43 55/55/55 56/56/56
f  43/43/43 56/56/56 44/44/44
f  44/44/44 56/56/56 57/57/57
f  44/44/44 57/57/57 45/45/45
f  45/45/45 57/57/57 58/58/58
f  45/45/45 58/58/58 46/46/46
f  46/46/46 58/58/58 59/59/59
f  46/46/46 59/59/59 47/47/47
f  47/47/47 59/59/59 60/60/60
f  47/47/47 60/60/60 48/48/48
f  48/48/48 60/60/60 61/61/61
f  48/48/48 61/61/61 49/49/49
f  49/49/49 61/61/61 62/62/62
f  49/49/49 62/62/62 50/50/50
f  50/50/50 62/62/62 63/63/63
f  50/50/50 63/63/63 51/51/51
f  51/51/51 63/63/63 64/64/64
f  51/51/51 64/64/64 52/52/52
f  52/52/52 64/64/64 65/65/65
f  53/53/53 66/66/66 54/54/54
f  54/54/54 66/66/66 67/67/67
f  54/54/54 67/67/67 55/55/55
f  55/55/55 67/67/67 68/68/68
f  55/55/55 68/68/68 56/56/56
f  56/56/56 68/68/68 69/69/69
f  56/56/56 69/69/69 57/57/57
f  57/57/57 69/69/69 70/70/70
f  57/57/57 70/70/70 58/58/58
f  58/58/58 70/70/70 71/71/71
f  58/58/58 71/71/71 59/59/59
f  59/59/59 71/71/71 72/72/72
f  59/59/59 72/72/72 60/60/60
f  60/60/60 72/72/72 73/73/73
f  60/60/60 73/73/73 61/61/61
f  61/61/61 73/73/73 74/74/74
f  61/61/61 74/74/74 62/62/62
f  62/62/62 74/74/74 75/75/75
f  62/62/62 75/75/75 63/63/63
f  63/63/63 75/75/75 76/76/76
f  63/63/63 76/76/76 64/64/64
f  64/64/64 76/76/76 77/77/77
f  64/64/64 77/77/77 65/65/65
f  65/65/65 77/77/77 78/78/78
f  66/66/66 79/79/79 67/67/67
f  67/67/67 79/79/79 80/80/80
f  67/67/67 80/80/80 68/68/68
f  68/68/68 80/80/80 81/81/81
f  68/68/68 81/81/81 69/69/69
f  69/69/69 81/81/81 82/82/82
f  69/69/69 82/82/82 70/70/70
f  70/70/70 82/82/82 83/83/83
f  70/70/70 83/83/83 71/71/71
f  71/71/71 83/83/83 84/84/84
f  71/71/71 84/84/84 72/72/72
f  72/72/72 84/84/84 85/85/85
f  72/72/72 85/85/85 73/73/73
f  73/73/73 85/85/85 86/86/86
f  73/73/73 86/86/86 74/74/74
f  74/74/74 86/86/86 87/87/87
f  74/74/74 87/87/87 75/75/75
f  75/75/75 87/87/87 88/88/88
f  75/75/75 88/88/88 76/76/76
f  76/76/76 88/88/88 89/89/89
f  76/76/76 89/89/89 77/77/77
f  77/77/77 89/89/89 90/90/90
f  77/77/77 90/90/90 78/78/78
f  78/78/78 90/90/90 91/91/91
f  79/79/79 92/92/92 80/80/80
f  80/80/80 92/92/92 93/93/93
f  80/80/80 93/93/93 81/81/81
f  81/81/81 93/93/93 94/94/94
f  81/81/81 94/94/94 82/82/82
f  82/82/82 94/94/94 95/95/95
f  82/82/82 95/95/95 83/83/83
f  83/83/83 95/95/95 96/96/96
f  83/83/83 96/96/96 84/84/84
f  84/84/84 96/96/96 97/97/97
f  84/84/84 97/97/97 85/85/85
f  85/85/85 97/97/97 98/98/98
f  85/85/85 98/98/98 86/86/86
f  86/86/86 98/98/98 99/99/99
f  86/86/86 99/99/99 87/87/87
f  87/87/87 99/99/99 100/100/100
f  87/87/87 100/100/100 88/88/88
f  88/88/88 100/100/100 101/101/101
f  88/88/88 101/101/101 89/89/89
f  89/89/89 101/101/101 102/102/102
f  89/89/89 102/102/102 90/90/90
f  90/90/90 102/102/102 103/103/103
f  90/90/90 103/103/103 91/91/91
f  91/91/91 103/103/103 104/104/104
f  92/92/92 105/105/105 93/93/93
f  93/93/93 105/105/105 106/106/106
f  93/93/93 106/106/106 94/94/94
f  94/94/94 106/106/106 107/107/107
f  94/94/94 107/107/107 95/95/95
f  95/95/95 107/107/107 108/108/108
f  95/95/95 108/108/108 96/96/96
f  96/96/96 108/108/108 109/109/109
f  96/96/96 109/109/109 97/97/97
f  97/97/97 109/109/109 110/110/110
f  97/97/97 110/110/110 98/98/98
f  98/98/98 110/110/110 111/111/111
f  98/98/98 111/111/111 99/99/99
f  99/99/99 111/111/111 112/112/112
f  99/99/99 112/112/112 100/100/100
f  100/100/100 112/112/112 113/113/113
f  100/100/100 113/113/113 101/101/101
f  101/101/101 113/113/113 114/114/114
f  101/101/101 114/114/114 102/102/102
f  102/102/102 114/114/114 115/115/115
f  102/102/102 115/115/115 103/103/103
f  103/103/103 115/115/115 116/116/116
f  103/103/103 116/116/116 104/104/104
f  104/104/104 116/116/116 117/117/117
