#
# OBJ Model generated by The SIM Group
# http://thesimgroup.org
#
mtllib Eye/eye_shaders.mtl
g Default
usemtl Black
v  -3.011515 4.084709 -4.337025
vn 0.918347 0.390353 0.065291
vt 0.000000 0.000000 0.000000
v  -3.011515 3.917448 -3.337025
vn 0.927049 0.374130 0.024651
vt 0.000000 0.334863 0.000000
v  -2.662813 3.192274 -3.906103
vn 0.848888 0.521330 0.087198
vt 0.111111 0.000000 0.000000
v  -2.662813 3.025014 -2.906103
vn 0.831283 0.555633 0.015499
vt 0.111111 0.334863 0.000000
v  -3.011515 4.084709 -2.337025
vn 0.936819 0.347760 -0.037867
vt 0.000000 0.669725 0.000000
v  -2.662813 3.192274 -1.906103
vn 0.846672 0.529975 -0.047673
vt 0.111111 0.669725 0.000000
v  -3.011515 4.084709 -1.337025
vn 0.931424 0.363936 0.000000
vt 0.000000 1.000000 0.000000
v  -2.662813 3.192274 -0.906103
vn 0.794233 0.607614 0.000000
vt 0.111111 1.000000 0.000000
v  -2.183892 2.719585 -3.577119
vn 0.570109 0.810313 0.135533
vt 0.222222 0.000000 0.000000
v  -2.183892 2.552325 -2.577119
vn 0.591508 0.806006 0.021749
vt 0.222222 0.334863 0.000000
v  -2.183892 2.719585 -1.577119
vn 0.623896 0.778740 -0.065708
vt 0.222222 0.669725 0.000000
v  -2.183892 2.719585 -0.577119
vn 0.568273 0.822840 0.000000
vt 0.222222 1.000000 0.000000
v  -1.453138 2.303590 -2.952774
vn 0.296339 0.933537 0.201721
vt 0.333333 0.000000 0.000000
v  -1.453138 2.136329 -2.255858
vn 0.313901 0.948997 0.029509
vt 0.333333 0.334863 0.000000
v  -1.453138 2.303590 -1.255858
vn 0.350992 0.933082 -0.078503
vt 0.333333 0.669725 0.000000
v  -1.453138 2.303590 -0.255858
vn 0.254213 0.967148 0.000000
vt 0.333333 1.000000 0.000000
v  -0.495541 2.180439 -2.764699
vn 0.041531 0.981354 0.187669
vt 0.444444 0.000000 0.000000
v  -0.495541 2.013179 -1.764699
vn 0.092738 0.995665 0.007113
vt 0.444444 0.334863 0.000000
v  -0.495541 2.180439 -0.764699
vn 0.101122 0.991468 -0.082252
vt 0.444444 0.669725 0.000000
v  -0.495541 2.180439 0.235301
vn 0.072412 0.997375 0.000000
vt 0.444444 1.000000 0.000000
v  0.309594 2.143143 -2.557858
vn -0.024275 0.981521 0.189810
vt 0.555556 0.000000 0.000000
v  0.336898 1.975883 -1.743076
vn -0.027206 0.999024 0.034810
vt 0.555556 0.334863 0.000000
v  0.336898 2.143143 -0.743076
vn -0.049383 0.995374 -0.082413
vt 0.555556 0.669725 0.000000
v  0.336898 2.143143 0.256924
vn -0.060524 0.998167 0.000000
vt 0.555556 1.000000 0.000000
v  1.130450 2.233323 -2.526306
vn -0.164267 0.951563 0.259894
vt 0.666667 0.000000 0.000000
v  1.130450 2.066062 -1.980933
vn -0.244143 0.965580 0.089716
vt 0.666667 0.334863 0.000000
v  1.130450 2.233323 -0.980933
vn -0.318795 0.944778 -0.075925
vt 0.666667 0.669725 0.000000
v  1.130450 2.233323 0.019067
vn -0.343630 0.939105 0.000000
vt 0.666667 1.000000 0.000000
v  1.842749 2.594027 -2.789000
vn -0.360958 0.863116 0.353187
vt 0.777778 0.000000 0.000000
v  1.842749 2.426767 -2.428845
vn -0.531987 0.836761 0.129698
vt 0.777778 0.334863 0.000000
v  1.842749 2.594027 -1.428845
vn -0.619264 0.782837 -0.060647
vt 0.777778 0.669725 0.000000
v  1.842749 2.594027 -0.428845
vn -0.638991 0.769214 0.000000
vt 0.777778 1.000000 0.000000
v  2.393401 3.166351 -3.212200
vn -0.682220 0.663125 0.307962
vt 0.888889 0.000000 0.000000
v  2.393401 2.999091 -2.852044
vn -0.840930 0.535710 0.076494
vt 0.888889 0.334863 0.000000
v  2.393401 3.166351 -1.852044
vn -0.869890 0.492064 -0.034128
vt 0.888889 0.669725 0.000000
v  2.393401 3.166351 -0.852044
vn -0.899241 0.437453 0.000000
vt 0.888889 1.000000 0.000000
v  2.693967 4.144824 -3.715715
vn -0.913607 0.368771 0.171261
vt 1.000000 0.000000 0.000000
v  2.693967 3.977563 -3.355559
vn -0.951593 0.306176 0.026947
vt 1.000000 0.334863 0.000000
v  2.693967 4.144824 -2.355559
vn -0.957971 0.286466 -0.015162
vt 1.000000 0.669725 0.000000
v  2.693967 4.144824 -1.355560
vn -0.955917 0.293637 0.000000
vt 1.000000 1.000000 0.000000
f  1/1/1 2/2/2 3/3/3
f  3/3/3 4/4/4 9/9/9
f  3/3/3 2/2/2 4/4/4
f  37/37/37 34/34/34 38/38/38
f  33/33/33 34/34/34 37/37/37
f  9/9/9 10/10/10 13/13/13
f  9/9/9 4/4/4 10/10/10
f  2/2/2 5/5/5 4/4/4
f  33/33/33 30/30/30 34/34/34
f  29/29/29 30/30/30 33/33/33
f  34/34/34 35/35/35 38/38/38
f  13/13/13 14/14/14 17/17/17
f  13/13/13 10/10/10 14/14/14
f  38/38/38 35/35/35 39/39/39
f  4/4/4 6/6/6 10/10/10
f  25/25/25 26/26/26 29/29/29
f  29/29/29 26/26/26 30/30/30
f  4/4/4 5/5/5 6/6/6
f  17/17/17 18/18/18 21/21/21
f  21/21/21 22/22/22 25/25/25
f  17/17/17 14/14/14 18/18/18
f  30/30/30 31/31/31 34/34/34
f  10/10/10 11/11/11 14/14/14
f  25/25/25 22/22/22 26/26/26
f  34/34/34 31/31/31 35/35/35
f  21/21/21 18/18/18 22/22/22
f  10/10/10 6/6/6 11/11/11
f  5/5/5 7/7/7 6/6/6
f  26/26/26 27/27/27 30/30/30
f  14/14/14 15/15/15 18/18/18
f  14/14/14 11/11/11 15/15/15
f  35/35/35 36/36/36 39/39/39
f  30/30/30 27/27/27 31/31/31
f  39/39/39 36/36/36 40/40/40
f  22/22/22 23/23/23 26/26/26
f  6/6/6 8/8/8 11/11/11
f  18/18/18 19/19/19 22/22/22
f  6/6/6 7/7/7 8/8/8
f  18/18/18 15/15/15 19/19/19
f  31/31/31 32/32/32 35/35/35
f  26/26/26 23/23/23 27/27/27
f  11/11/11 12/12/12 15/15/15
f  22/22/22 19/19/19 23/23/23
f  35/35/35 32/32/32 36/36/36
f  11/11/11 8/8/8 12/12/12
f  27/27/27 28/28/28 31/31/31
f  15/15/15 16/16/16 19/19/19
f  15/15/15 12/12/12 16/16/16
f  31/31/31 28/28/28 32/32/32
f  23/23/23 24/24/24 27/27/27
f  19/19/19 20/20/20 23/23/23
f  19/19/19 16/16/16 20/20/20
f  27/27/27 24/24/24 28/28/28
f  23/23/23 20/20/20 24/24/24
