#
# OBJ Model generated by The SIM Group
# http://thesimgroup.org
#
mtllib Eye/eye_shaders.mtl
g Default
usemtl Black
v  -2.784443 5.426076 -4.021942
vn 0.745442 -0.638922 0.189985
vt 0.000000 0.000000 0.000000
v  -2.784443 5.723428 -3.021942
vn 0.755675 -0.623970 0.199042
vt 0.000000 0.255808 0.000000
v  -1.987024 6.774938 -2.614523
vn 0.561037 -0.771464 0.300133
vt 0.111111 0.000000 0.000000
v  -1.987024 7.072289 -1.917607
vn 0.520903 -0.809787 0.270009
vt 0.111111 0.255808 0.000000
v  -2.784443 5.946442 -2.021942
vn 0.816934 -0.567427 0.103177
vt 0.000000 0.507029 0.000000
v  -1.987024 7.295303 -0.917607
vn 0.626403 -0.769143 0.126641
vt 0.111111 0.507029 0.000000
v  -2.784443 6.039364 -1.021942
vn 0.839757 -0.540313 0.053579
vt 0.000000 0.753283 0.000000
v  -1.987024 7.388226 0.082393
vn 0.659527 -0.747840 0.075892
vt 0.111111 0.753283 0.000000
v  -2.784443 6.150871 -0.021942
vn 0.836679 -0.544320 0.060695
vt 0.000000 1.000000 0.000000
v  -1.987024 7.499732 1.082393
vn 0.580027 -0.809580 0.090273
vt 0.111111 1.000000 0.000000
v  -1.116104 7.279969 -1.744955
vn 0.126174 -0.912427 0.389304
vt 0.222222 0.000000 0.000000
v  -1.116104 7.577321 -1.048040
vn 0.195857 -0.932979 0.301978
vt 0.222222 0.255808 0.000000
v  -1.116104 7.800334 -0.048040
vn 0.295200 -0.943596 0.149945
vt 0.222222 0.507029 0.000000
v  -1.116104 7.893257 0.951960
vn 0.321567 -0.941989 0.096181
vt 0.222222 0.753283 0.000000
v  -1.116104 8.004764 1.951960
vn 0.280916 -0.953821 0.106357
vt 0.222222 1.000000 0.000000
v  -0.422124 7.454570 -1.510188
vn 0.003991 -0.919770 0.392437
vt 0.333333 0.000000 0.000000
v  -0.422124 7.751922 -0.813272
vn -0.011011 -0.951869 0.306308
vt 0.333333 0.255808 0.000000
v  -0.422124 7.974936 0.186728
vn 0.040179 -0.987022 0.155479
vt 0.333333 0.507029 0.000000
v  -0.422124 8.067858 1.186728
vn 0.057621 -0.993167 0.101481
vt 0.333333 0.753283 0.000000
v  -0.422124 8.179364 2.186728
vn 0.002693 -0.993837 0.110819
vt 0.333333 1.000000 0.000000
v  0.315189 7.406906 -1.269242
vn -0.179776 -0.904792 0.386045
vt 0.444444 0.000000 0.000000
v  0.315189 7.704257 -0.572326
vn -0.173135 -0.940103 0.293651
vt 0.444444 0.255808 0.000000
v  0.315189 7.927271 0.427674
vn -0.150786 -0.976594 0.153385
vt 0.444444 0.507029 0.000000
v  0.315189 8.020194 1.427674
vn -0.140525 -0.984944 0.100684
vt 0.444444 0.753283 0.000000
v  0.315189 8.131701 2.427674
vn -0.156494 -0.981595 0.109455
vt 0.444444 1.000000 0.000000
v  1.133494 7.275172 -1.217514
vn -0.259300 -0.901484 0.346540
vt 0.555556 0.000000 0.000000
v  1.092538 7.572524 -0.436408
vn -0.248323 -0.919999 0.303214
vt 0.555556 0.255808 0.000000
v  1.092538 7.795537 0.563592
vn -0.242719 -0.958343 0.150554
vt 0.555556 0.507029 0.000000
v  1.092538 7.888460 1.563592
vn -0.249299 -0.963402 0.098519
vt 0.555556 0.753283 0.000000
v  1.092538 7.999967 2.563592
vn -0.269537 -0.957059 0.106719
vt 0.555556 1.000000 0.000000
v  1.837596 7.012417 -1.068882
vn -0.096684 -0.879228 0.466487
vt 0.666667 0.000000 0.000000
v  1.837596 7.309769 -0.590860
vn -0.212768 -0.918723 0.332682
vt 0.666667 0.255808 0.000000
v  1.837596 7.532783 0.409140
vn -0.338118 -0.927358 0.160263
vt 0.666667 0.507029 0.000000
v  1.837596 7.625705 1.409140
vn -0.385982 -0.917714 0.093911
vt 0.666667 0.753283 0.000000
v  1.837596 7.737212 2.409140
vn -0.401469 -0.910231 0.101497
vt 0.666667 1.000000 0.000000
v  2.406903 6.644616 -1.998561
vn -0.279597 -0.885809 0.370362
vt 0.777778 0.000000 0.000000
v  2.406903 6.941967 -1.049075
vn -0.288784 -0.900325 0.325606
vt 0.777778 0.255808 0.000000
v  2.406903 7.164981 -0.335321
vn -0.529915 -0.832851 0.159841
vt 0.777778 0.507029 0.000000
v  2.406903 7.257904 0.664679
vn -0.630911 -0.771787 0.079352
vt 0.777778 0.753283 0.000000
v  2.406903 7.369411 1.664679
vn -0.678294 -0.730265 0.081429
vt 0.777778 1.000000 0.000000
v  2.794685 6.070509 -2.558866
vn 0.380759 -0.788325 0.483288
vt 0.888889 0.000000 0.000000
v  2.794685 6.367861 -2.198710
vn -0.474473 -0.798905 0.369629
vt 0.888889 0.255808 0.000000
v  2.794685 6.590874 -1.198711
vn -0.913838 -0.401757 0.059083
vt 0.888889 0.507029 0.000000
v  2.794685 6.683797 -0.198711
vn -0.922546 -0.383800 0.040086
vt 0.888889 0.753283 0.000000
v  2.794685 6.795303 0.801289
vn -0.954618 -0.295997 0.033006
vt 0.888889 1.000000 0.000000
v  2.894278 5.107373 -4.040476
vn -0.159706 -0.818650 0.551640
vt 1.000000 0.000000 0.000000
v  2.894278 5.404725 -3.040476
vn -0.990847 -0.130983 0.032637
vt 1.000000 0.255808 0.000000
v  2.894278 5.627738 -2.040476
vn -0.992995 -0.117010 0.016395
vt 1.000000 0.507029 0.000000
v  2.894278 5.720661 -1.040476
vn -0.993506 -0.113156 0.011925
vt 1.000000 0.753283 0.000000
v  2.894278 5.832168 -0.040476
vn -0.993421 -0.113817 0.012691
vt 1.000000 1.000000 0.000000
f  3/3/3 2/2/2 1/1/1
f  47/47/47 42/42/42 46/46/46
f  46/46/46 42/42/42 41/41/41
f  4/4/4 2/2/2 3/3/3
f  4/4/4 5/5/5 2/2/2
f  47/47/47 43/43/43 42/42/42
f  48/48/48 43/43/43 47/47/47
f  11/11/11 4/4/4 3/3/3
f  42/42/42 37/37/37 41/41/41
f  41/41/41 37/37/37 36/36/36
f  6/6/6 5/5/5 4/4/4
f  12/12/12 4/4/4 11/11/11
f  16/16/16 12/12/12 11/11/11
f  6/6/6 7/7/7 5/5/5
f  12/12/12 6/6/6 4/4/4
f  43/43/43 38/38/38 42/42/42
f  36/36/36 32/32/32 31/31/31
f  37/37/37 32/32/32 36/36/36
f  21/21/21 17/17/17 16/16/16
f  42/42/42 38/38/38 37/37/37
f  48/48/48 44/44/44 43/43/43
f  17/17/17 12/12/12 16/16/16
f  49/49/49 44/44/44 48/48/48
f  26/26/26 22/22/22 21/21/21
f  31/31/31 27/27/27 26/26/26
f  22/22/22 17/17/17 21/21/21
f  27/27/27 22/22/22 26/26/26
f  32/32/32 27/27/27 31/31/31
f  13/13/13 6/6/6 12/12/12
f  17/17/17 13/13/13 12/12/12
f  8/8/8 7/7/7 6/6/6
f  37/37/37 33/33/33 32/32/32
f  22/22/22 18/18/18 17/17/17
f  38/38/38 33/33/33 37/37/37
f  8/8/8 9/9/9 7/7/7
f  13/13/13 8/8/8 6/6/6
f  43/43/43 39/39/39 38/38/38
f  44/44/44 39/39/39 43/43/43
f  18/18/18 13/13/13 17/17/17
f  27/27/27 23/23/23 22/22/22
f  32/32/32 28/28/28 27/27/27
f  49/49/49 45/45/45 44/44/44
f  50/50/50 45/45/45 49/49/49
f  23/23/23 18/18/18 22/22/22
f  33/33/33 28/28/28 32/32/32
f  28/28/28 23/23/23 27/27/27
f  14/14/14 8/8/8 13/13/13
f  18/18/18 14/14/14 13/13/13
f  10/10/10 9/9/9 8/8/8
f  38/38/38 34/34/34 33/33/33
f  39/39/39 34/34/34 38/38/38
f  23/23/23 19/19/19 18/18/18
f  14/14/14 10/10/10 8/8/8
f  44/44/44 40/40/40 39/39/39
f  45/45/45 40/40/40 44/44/44
f  19/19/19 14/14/14 18/18/18
f  28/28/28 24/24/24 23/23/23
f  33/33/33 29/29/29 28/28/28
f  24/24/24 19/19/19 23/23/23
f  34/34/34 29/29/29 33/33/33
f  29/29/29 24/24/24 28/28/28
f  15/15/15 10/10/10 14/14/14
f  19/19/19 15/15/15 14/14/14
f  39/39/39 35/35/35 34/34/34
f  40/40/40 35/35/35 39/39/39
f  24/24/24 20/20/20 19/19/19
f  20/20/20 15/15/15 19/19/19
f  29/29/29 25/25/25 24/24/24
f  34/34/34 30/30/30 29/29/29
f  25/25/25 20/20/20 24/24/24
f  35/35/35 30/30/30 34/34/34
f  30/30/30 25/25/25 29/29/29
