# This file uses centimeters as units for non-parametric coordinates.

mtllib Blade_instrument_tip_rounded.mtl
g default
v 0.034800 -0.045182 -0.626311
v 0.001955 -0.031774 -0.626311
v 0.034800 -0.039231 -0.758443
v -0.000115 -0.026340 -0.758443
v 0.035269 -0.033625 -0.916795
v 0.000276 -0.019663 -0.916795
v 0.035269 -0.027277 -0.997691
v -0.001254 -0.012992 -0.997691
v 0.035269 -0.017906 -1.059007
v 0.013157 -0.007162 -1.059007
v 0.035269 0.000000 -1.117928
v -0.012750 0.000013 -0.626311
v -0.023372 0.000103 -0.758443
v -0.033815 0.000294 -0.916795
v -0.040769 0.000405 -0.997691
v -0.006889 0.000270 -1.059007
v 0.035269 0.000000 -1.117928
v 0.001955 0.031834 -0.626311
v -0.000115 0.026825 -0.758443
v 0.000276 0.021052 -0.916795
v -0.001254 0.014883 -0.997691
v 0.013157 0.008377 -1.059007
v 0.035269 0.000000 -1.117928
v 0.034800 0.045246 -0.626311
v 0.034800 0.039739 -0.758443
v 0.035269 0.035068 -0.916795
v 0.035269 0.029173 -0.997691
v 0.035269 0.018981 -1.059007
v 0.035269 0.000000 -1.117928
v 0.067686 0.031834 -0.626311
v 0.070037 0.026825 -0.758443
v 0.070979 0.021052 -0.916795
v 0.072685 0.014883 -0.997691
v 0.057779 0.008377 -1.059007
v 0.035269 0.000000 -1.117928
v 0.082511 0.000013 -0.626311
v 0.094261 0.000103 -0.758443
v 0.107225 0.000294 -0.916795
v 0.114881 0.000405 -0.997691
v 0.079022 0.000270 -1.059007
v 0.035269 0.000000 -1.117928
v 0.067686 -0.031774 -0.626311
v 0.070037 -0.026340 -0.758443
v 0.070979 -0.019663 -0.916795
v 0.072685 -0.012992 -0.997691
v 0.057779 -0.007162 -1.059007
v 0.035269 0.000000 -1.117928
v 0.035269 0.000000 -1.117928
vn -0.377614 -0.925025 -0.041662
vn -0.377614 -0.925025 -0.041662
vn -0.377614 -0.925025 -0.041662
vn -0.346168 -0.937587 -0.033136
vn -0.346168 -0.937587 -0.033136
vn -0.346168 -0.937587 -0.033136
vn -0.346155 -0.937553 -0.034216
vn -0.346155 -0.937553 -0.034216
vn -0.346155 -0.937553 -0.034216
vn -0.370289 -0.928053 -0.040046
vn -0.370289 -0.928053 -0.040046
vn -0.370289 -0.928053 -0.040046
vn -0.369606 -0.926341 -0.072691
vn -0.369606 -0.926341 -0.072691
vn -0.369606 -0.926341 -0.072691
vn -0.363369 -0.929031 -0.069740
vn -0.363369 -0.929031 -0.069740
vn -0.363369 -0.929031 -0.069740
vn -0.360621 -0.922007 -0.140910
vn -0.360621 -0.922007 -0.140910
vn -0.360621 -0.922007 -0.140910
vn -0.429498 -0.883918 -0.184989
vn -0.429498 -0.883918 -0.184989
vn -0.429498 -0.883918 -0.184989
vn -0.421576 -0.867614 -0.263667
vn -0.421576 -0.867614 -0.263667
vn -0.421576 -0.867614 -0.263667
vn -0.907584 -0.419859 -0.003049
vn -0.907584 -0.419859 -0.003049
vn -0.907584 -0.419859 -0.003049
vn -0.749550 -0.659240 0.059807
vn -0.749550 -0.659240 0.059807
vn -0.749550 -0.659240 0.059807
vn -0.750564 -0.660131 -0.029687
vn -0.750564 -0.660131 -0.029687
vn -0.750564 -0.660131 -0.029687
vn -0.504938 -0.862552 0.032261
vn -0.504938 -0.862552 0.032261
vn -0.504938 -0.862552 0.032261
vn -0.504244 -0.861369 -0.061496
vn -0.504244 -0.861369 -0.061496
vn -0.504244 -0.861369 -0.061496
vn -0.320973 -0.946723 0.026291
vn -0.320973 -0.946723 0.026291
vn -0.320973 -0.946723 0.026291
vn -0.316774 -0.934340 -0.163289
vn -0.316774 -0.934340 -0.163289
vn -0.316774 -0.934340 -0.163289
vn -0.341516 -0.921151 -0.186676
vn -0.341516 -0.921151 -0.186676
vn -0.341516 -0.921151 -0.186676
vn -0.337684 -0.910820 -0.237436
vn -0.337684 -0.910820 -0.237436
vn -0.337684 -0.910820 -0.237436
vn -0.905333 0.418370 0.073064
vn -0.905333 0.418370 0.073064
vn -0.905333 0.418370 0.073064
vn -0.754255 0.656451 -0.013069
vn -0.754255 0.656451 -0.013069
vn -0.754255 0.656451 -0.013069
vn -0.753358 0.655671 0.050475
vn -0.753358 0.655671 0.050475
vn -0.753358 0.655671 0.050475
vn -0.519798 0.853674 -0.032405
vn -0.519798 0.853674 -0.032405
vn -0.519798 0.853674 -0.032405
vn -0.519524 0.853226 0.045829
vn -0.519524 0.853226 0.045829
vn -0.519524 0.853226 0.045829
vn -0.343301 0.936976 -0.064960
vn -0.343301 0.936976 -0.064960
vn -0.343301 0.936976 -0.064960
vn -0.337846 0.922090 -0.188707
vn -0.337846 0.922090 -0.188707
vn -0.337846 0.922090 -0.188707
vn -0.368568 0.911345 -0.183323
vn -0.368568 0.911345 -0.183323
vn -0.368568 0.911345 -0.183323
vn -0.361731 0.894442 -0.262913
vn -0.361731 0.894442 -0.262913
vn -0.361731 0.894442 -0.262913
vn -0.377878 0.925396 -0.029161
vn -0.377878 0.925396 -0.029161
vn -0.377878 0.925396 -0.029161
vn -0.346637 0.937186 -0.039060
vn -0.346637 0.937186 -0.039060
vn -0.346637 0.937186 -0.039060
vn -0.346689 0.937326 -0.035028
vn -0.346689 0.937326 -0.035028
vn -0.346689 0.937326 -0.035028
vn -0.371672 0.927928 -0.028472
vn -0.371672 0.927928 -0.028472
vn -0.371672 0.927928 -0.028472
vn -0.371069 0.926422 -0.063630
vn -0.371069 0.926422 -0.063630
vn -0.371069 0.926422 -0.063630
vn -0.363530 0.929119 -0.067706
vn -0.363530 0.929119 -0.067706
vn -0.363530 0.929119 -0.067706
vn -0.358323 0.915807 -0.181388
vn -0.358323 0.915807 -0.181388
vn -0.358323 0.915807 -0.181388
vn -0.427642 0.891714 -0.148220
vn -0.427642 0.891714 -0.148220
vn -0.427642 0.891714 -0.148220
vn -0.415254 0.865885 -0.278939
vn -0.415254 0.865885 -0.278939
vn -0.415254 0.865885 -0.278939
vn 0.377354 0.925266 -0.038563
vn 0.377354 0.925266 -0.038563
vn 0.377354 0.925266 -0.038563
vn 0.343959 0.938523 -0.029459
vn 0.343959 0.938523 -0.029459
vn 0.343959 0.938523 -0.029459
vn 0.343986 0.938596 -0.026668
vn 0.343986 0.938596 -0.026668
vn 0.343986 0.938596 -0.026668
vn 0.365171 0.930399 -0.031746
vn 0.365171 0.930399 -0.031746
vn 0.365171 0.930399 -0.031746
vn 0.364517 0.928734 -0.067678
vn 0.364517 0.928734 -0.067678
vn 0.364517 0.928734 -0.067678
vn 0.356061 0.932297 -0.063588
vn 0.356061 0.932297 -0.063588
vn 0.356061 0.932297 -0.063588
vn 0.352559 0.923124 -0.153441
vn 0.352559 0.923124 -0.153441
vn 0.352559 0.923124 -0.153441
vn 0.417909 0.887156 -0.195722
vn 0.417909 0.887156 -0.195722
vn 0.417909 0.887156 -0.195722
vn 0.409129 0.868523 -0.279789
vn 0.409129 0.868523 -0.279789
vn 0.409129 0.868523 -0.279789
vn 0.906454 0.422305 0.000119
vn 0.906454 0.422305 0.000119
vn 0.906454 0.422305 0.000119
vn 0.739263 0.670156 0.066196
vn 0.739263 0.670156 0.066196
vn 0.739263 0.670156 0.066196
vn 0.740739 0.671493 -0.020073
vn 0.740739 0.671493 -0.020073
vn 0.740739 0.671493 -0.020073
vn 0.496543 0.867010 0.041696
vn 0.496543 0.867010 0.041696
vn 0.496543 0.867010 0.041696
vn 0.496206 0.866422 -0.055609
vn 0.496206 0.866422 -0.055609
vn 0.496206 0.866422 -0.055609
vn 0.324374 0.945388 0.031998
vn 0.324374 0.945388 0.031998
vn 0.324374 0.945388 0.031998
vn 0.319448 0.931032 -0.176443
vn 0.319448 0.931032 -0.176443
vn 0.319448 0.931032 -0.176443
vn 0.348908 0.914222 -0.206063
vn 0.348908 0.914222 -0.206063
vn 0.348908 0.914222 -0.206063
vn 0.344315 0.902189 -0.259813
vn 0.344315 0.902189 -0.259813
vn 0.344315 0.902189 -0.259813
vn 0.903373 -0.421320 0.080047
vn 0.903373 -0.421320 0.080047
vn 0.903373 -0.421320 0.080047
vn 0.737289 -0.675419 -0.014658
vn 0.737289 -0.675419 -0.014658
vn 0.737289 -0.675419 -0.014658
vn 0.736064 -0.674296 0.059446
vn 0.736064 -0.674296 0.059446
vn 0.736064 -0.674296 0.059446
vn 0.482048 -0.875483 -0.034047
vn 0.482048 -0.875483 -0.034047
vn 0.482048 -0.875483 -0.034047
vn 0.481851 -0.875127 0.044404
vn 0.481851 -0.875127 0.044404
vn 0.481851 -0.875127 0.044404
vn 0.301822 -0.950640 -0.072029
vn 0.301822 -0.950640 -0.072029
vn 0.301822 -0.950640 -0.072029
vn 0.298084 -0.938868 -0.172260
vn 0.298084 -0.938868 -0.172260
vn 0.298084 -0.938868 -0.172260
vn 0.325569 -0.930542 -0.167619
vn 0.325569 -0.930542 -0.167619
vn 0.325569 -0.930542 -0.167619
vn 0.321054 -0.917646 -0.234201
vn 0.321054 -0.917646 -0.234201
vn 0.321054 -0.917646 -0.234201
vn 0.377353 -0.925539 -0.031349
vn 0.377353 -0.925539 -0.031349
vn 0.377353 -0.925539 -0.031349
vn 0.343261 -0.938289 -0.042259
vn 0.343261 -0.938289 -0.042259
vn 0.343261 -0.938289 -0.042259
vn 0.343326 -0.938466 -0.037528
vn 0.343326 -0.938466 -0.037528
vn 0.343326 -0.938466 -0.037528
vn 0.363949 -0.930873 -0.031878
vn 0.363949 -0.930873 -0.031878
vn 0.363949 -0.930873 -0.031878
vn 0.363268 -0.929129 -0.068960
vn 0.363268 -0.929129 -0.068960
vn 0.363268 -0.929129 -0.068960
vn 0.355720 -0.931728 -0.073114
vn 0.355720 -0.931728 -0.073114
vn 0.355720 -0.931728 -0.073114
vn 0.351303 -0.920161 -0.172889
vn 0.351303 -0.920161 -0.172889
vn 0.351303 -0.920161 -0.172889
vn 0.426699 -0.894013 -0.136631
vn 0.426699 -0.894013 -0.136631
vn 0.426699 -0.894013 -0.136631
vn 0.415398 -0.870337 -0.264494
vn 0.415398 -0.870337 -0.264494
vn 0.415398 -0.870337 -0.264494
s off
g Mesh
usemtl initialShadingGroup
f 1//1 2//2 3//3
f 3//4 2//5 4//6
f 3//7 4//8 5//9
f 5//10 4//11 6//12
f 5//13 6//14 7//15
f 7//16 6//17 8//18
f 7//19 8//20 9//21
f 9//22 8//23 10//24
f 9//25 10//26 11//27
f 2//28 12//29 4//30
f 4//31 12//32 13//33
f 4//34 13//35 6//36
f 6//37 13//38 14//39
f 6//40 14//41 8//42
f 8//43 14//44 15//45
f 8//46 15//47 10//48
f 10//49 15//50 16//51
f 10//52 16//53 17//54
f 12//55 18//56 13//57
f 13//58 18//59 19//60
f 13//61 19//62 14//63
f 14//64 19//65 20//66
f 14//67 20//68 15//69
f 15//70 20//71 21//72
f 15//73 21//74 16//75
f 16//76 21//77 22//78
f 16//79 22//80 23//81
f 18//82 24//83 19//84
f 19//85 24//86 25//87
f 19//88 25//89 20//90
f 20//91 25//92 26//93
f 20//94 26//95 21//96
f 21//97 26//98 27//99
f 21//100 27//101 22//102
f 22//103 27//104 28//105
f 22//106 28//107 29//108
f 24//109 30//110 25//111
f 25//112 30//113 31//114
f 25//115 31//116 26//117
f 26//118 31//119 32//120
f 26//121 32//122 27//123
f 27//124 32//125 33//126
f 27//127 33//128 28//129
f 28//130 33//131 34//132
f 28//133 34//134 35//135
f 30//136 36//137 31//138
f 31//139 36//140 37//141
f 31//142 37//143 32//144
f 32//145 37//146 38//147
f 32//148 38//149 33//150
f 33//151 38//152 39//153
f 33//154 39//155 34//156
f 34//157 39//158 40//159
f 34//160 40//161 41//162
f 36//163 42//164 37//165
f 37//166 42//167 43//168
f 37//169 43//170 38//171
f 38//172 43//173 44//174
f 38//175 44//176 39//177
f 39//178 44//179 45//180
f 39//181 45//182 40//183
f 40//184 45//185 46//186
f 40//187 46//188 47//189
f 42//190 1//191 43//192
f 43//193 1//194 3//195
f 43//196 3//197 44//198
f 44//199 3//200 5//201
f 44//202 5//203 45//204
f 45//205 5//206 7//207
f 45//208 7//209 46//210
f 46//211 7//212 9//213
f 46//214 9//215 48//216
