# Blender3D v245 OBJ File: <memory>
# www.blender3d.org
o Cube.002_Mesh.001_Mat
v 0.955778 -0.308493 -1.000000
v 0.955778 -0.308493 1.000000
v -0.985734 0.211734 1.000000
v -0.985733 0.211733 -1.000000
v 0.989425 -0.182923 -0.999999
v 0.989424 -0.182922 1.000001
v -0.952087 0.337304 1.000000
v -0.952087 0.337304 -1.000000
v -0.864124 0.245186 0.901192
v 0.876846 -0.221305 0.901192
v 0.876846 -0.221305 -0.901192
v -0.864123 0.245186 -0.901193
v 0.893728 -0.158303 -0.901192
v 0.893727 -0.158303 0.901193
v -0.847243 0.308188 0.901192
v -0.847243 0.308188 -0.901192
vn -0.258819 -0.965926 0.000000
vn 0.965926 -0.258819 0.000000
vn -0.000001 -0.000001 1.000000
vn -0.965926 0.258818 -0.000000
vn 0.000001 0.000003 -1.000000
vn 0.258819 0.965926 -0.000000
vn 0.249151 0.968465 -0.000000
vn -0.965927 0.258816 -0.000000
vn 0.267577 0.963537 -0.000000
vn 0.965927 -0.258813 0.000000
vn 0.258806 0.965878 -0.009996
vn 0.000001 0.000002 -1.000000
vn 0.258806 0.965878 0.009996
vn -0.000001 -0.000004 1.000000
usemtl Material.001
s off
f 1//1 2//1 3//1 4//1
f 1//2 5//2 6//2 2//2
f 2//3 6//3 7//3 3//3
f 3//4 7//4 8//4 4//4
f 5//5 1//5 4//5 8//5
f 9//6 10//6 11//6 12//6
f 6//7 5//7 13//7 14//7
f 10//8 14//8 13//8 11//8
f 8//9 7//9 15//9 16//9
f 12//10 16//10 15//10 9//10
f 6//11 14//11 15//11 7//11
f 10//12 9//12 15//12 14//12
f 8//13 16//13 13//13 5//13
f 12//14 11//14 13//14 16//14
