# OBJ output by FlowVR Render
#Face Count 96
#Vertex Count 90
v -7.467225 -1.662087 -14.934456
v -7.467225 -1.662087 -14.934456
v -7.467225 -1.662087 -14.934456
v -7.467225 -1.662087 14.934450
v -7.467225 -1.662087 14.934450
v -7.467225 -1.662087 14.934450
v 7.467228 -1.662087 14.934447
v 7.467228 -1.662087 14.934447
v 7.467228 -1.662087 14.934447
v 7.467224 -1.662087 -14.934459
v 7.467224 -1.662087 -14.934459
v 7.467224 -1.662087 -14.934459
v -7.467229 -6.662087 -14.934445
v -7.467229 -6.662087 -14.934445
v -7.467229 -6.662087 -14.934445
v -7.467220 -6.662087 14.934459
v -7.467220 -6.662087 14.934459
v -7.467220 -6.662087 14.934459
v 7.467229 -6.662087 14.934445
v 7.467229 -6.662087 14.934445
v 7.467229 -6.662087 14.934445
v 7.467227 -6.662087 -14.934453
v 7.467227 -6.662087 -14.934453
v 7.467227 -6.662087 -14.934453
v 0.000001 -1.662087 14.934450
v 0.000001 -1.662087 14.934450
v -7.467225 -1.662087 -0.000002
v -7.467225 -1.662087 -0.000002
v -0.000001 -1.662087 -14.934456
v -0.000001 -1.662087 -14.934456
v 7.467226 -1.662087 -0.000006
v 7.467226 -1.662087 -0.000006
v 0.000000 -1.662087 -0.000004
v -3.733612 -1.662087 14.934450
v -3.733612 -1.662087 14.934450
v 3.733615 -1.662087 14.934448
v 3.733615 -1.662087 14.934448
v -7.467225 -1.662087 -7.467229
v -7.467225 -1.662087 -7.467229
v -7.467225 -1.662087 7.467224
v -7.467225 -1.662087 7.467224
v -3.733613 -1.662087 -14.934456
v -3.733613 -1.662087 -14.934456
v 3.733612 -1.662087 -14.934458
v 3.733612 -1.662087 -14.934458
v 7.467227 -1.662087 7.467220
v 7.467227 -1.662087 7.467220
v 7.467225 -1.662087 -7.467233
v 7.467225 -1.662087 -7.467233
v 0.000001 -1.662087 7.467223
v -3.733613 -1.662087 -0.000003
v -0.000000 -1.662087 -7.467230
v 3.733613 -1.662087 -0.000005
v -3.733612 -1.662087 7.467224
v -3.733613 -1.662087 -7.467229
v 3.733614 -1.662087 7.467222
v 3.733613 -1.662087 -7.467231
v -7.467225 -6.662087 0.000007
v -7.467225 -6.662087 0.000007
v 0.000005 -6.662087 14.934451
v 0.000005 -6.662087 14.934451
v 7.467228 -6.662087 -0.000004
v 7.467228 -6.662087 -0.000004
v -0.000001 -6.662087 -14.934450
v -0.000001 -6.662087 -14.934450
v 0.000002 -6.662087 0.000001
v -7.467227 -6.662087 -7.467220
v -7.467227 -6.662087 -7.467220
v -7.467222 -6.662087 7.467233
v -7.467222 -6.662087 7.467233
v -3.733608 -6.662087 14.934456
v -3.733608 -6.662087 14.934456
v 3.733617 -6.662087 14.934450
v 3.733617 -6.662087 14.934450
v 7.467229 -6.662087 7.467221
v 7.467229 -6.662087 7.467221
v 7.467227 -6.662087 -7.467228
v 7.467227 -6.662087 -7.467228
v -3.733615 -6.662087 -14.934447
v -3.733615 -6.662087 -14.934447
v 3.733613 -6.662087 -14.934451
v 3.733613 -6.662087 -14.934451
v 3.733615 -6.662087 -0.000001
v 0.000000 -6.662087 -7.467224
v -3.733611 -6.662087 0.000004
v 0.000003 -6.662087 7.467227
v 3.733614 -6.662087 -7.467226
v -3.733614 -6.662087 -7.467222
v 3.733616 -6.662087 7.467224
v -3.733610 -6.662087 7.467229
vn 0.000000 1.000000 -0.000000
vn 0.000000 0.000000 -1.000000
vn -1.000000 0.000000 0.000000
vn 0.000000 1.000000 -0.000000
vn 0.000000 0.000000 1.000000
vn -1.000000 0.000000 0.000000
vn 0.000000 1.000000 -0.000000
vn 1.000000 0.000000 0.000000
vn 0.000000 0.000000 1.000000
vn 0.000000 1.000000 -0.000000
vn 0.000000 0.000000 -1.000000
vn 1.000000 0.000000 0.000000
vn 0.000000 -1.000000 -0.000000
vn 0.000000 0.000000 -1.000000
vn -1.000000 0.000000 0.000000
vn 0.000000 -1.000000 -0.000000
vn 0.000000 0.000000 1.000000
vn -1.000000 0.000000 0.000000
vn 0.000000 -1.000000 -0.000000
vn 1.000000 0.000000 0.000000
vn 0.000000 0.000000 1.000000
vn 0.000000 -1.000000 -0.000000
vn 0.000000 0.000000 -1.000000
vn 1.000000 0.000000 0.000000
vn 0.000000 1.000000 -0.000000
vn 0.000000 0.000000 1.000000
vn 0.000000 1.000000 -0.000000
vn -1.000000 0.000000 0.000000
vn 0.000000 1.000000 -0.000000
vn 0.000000 0.000000 -1.000000
vn 0.000000 1.000000 -0.000000
vn 1.000000 0.000000 0.000000
vn 0.000000 1.000000 -0.000000
vn 0.000000 1.000000 -0.000000
vn 0.000000 0.000000 1.000000
vn 0.000000 1.000000 -0.000000
vn 0.000000 0.000000 1.000000
vn 0.000000 1.000000 -0.000000
vn -1.000000 0.000000 0.000000
vn 0.000000 1.000000 -0.000000
vn -1.000000 0.000000 0.000000
vn 0.000000 1.000000 -0.000000
vn 0.000000 0.000000 -1.000000
vn 0.000000 1.000000 -0.000000
vn 0.000000 0.000000 -1.000000
vn 0.000000 1.000000 -0.000000
vn 1.000000 0.000000 0.000000
vn 0.000000 1.000000 -0.000000
vn 1.000000 0.000000 0.000000
vn 0.000000 1.000000 -0.000000
vn 0.000000 1.000000 -0.000000
vn 0.000000 1.000000 -0.000000
vn 0.000000 1.000000 -0.000000
vn 0.000000 1.000000 -0.000000
vn 0.000000 1.000000 -0.000000
vn 0.000000 1.000000 -0.000000
vn 0.000000 1.000000 -0.000000
vn 0.000000 -1.000000 -0.000000
vn -1.000000 0.000000 0.000000
vn 0.000000 -1.000000 -0.000000
vn 0.000000 0.000000 1.000000
vn 0.000000 -1.000000 -0.000000
vn 1.000000 0.000000 0.000000
vn 0.000000 -1.000000 -0.000000
vn 0.000000 0.000000 -1.000000
vn 0.000000 -1.000000 -0.000000
vn 0.000000 -1.000000 -0.000000
vn -1.000000 0.000000 0.000000
vn 0.000000 -1.000000 -0.000000
vn -1.000000 0.000000 0.000000
vn 0.000000 -1.000000 -0.000000
vn 0.000000 0.000000 1.000000
vn 0.000000 -1.000000 -0.000000
vn 0.000000 0.000000 1.000000
vn 0.000000 -1.000000 -0.000000
vn 1.000000 0.000000 0.000000
vn 0.000000 -1.000000 -0.000000
vn 1.000000 0.000000 0.000000
vn 0.000000 -1.000000 -0.000000
vn 0.000000 0.000000 -1.000000
vn 0.000000 -1.000000 -0.000000
vn 0.000000 0.000000 -1.000000
vn 0.000000 -1.000000 -0.000000
vn 0.000000 -1.000000 -0.000000
vn 0.000000 -1.000000 -0.000000
vn 0.000000 -1.000000 -0.000000
vn 0.000000 -1.000000 -0.000000
vn 0.000000 -1.000000 -0.000000
vn 0.000000 -1.000000 -0.000000
vn 0.000000 -1.000000 -0.000000
vt 0.001999 3.998002
vt 0.001999 3.998002
vt 0.001999 3.998002
vt 0.001998 0.001999
vt 0.001998 0.001999
vt 0.001998 0.001999
vt 3.998002 0.001999
vt 3.998002 0.001999
vt 3.998002 0.001999
vt 3.998002 3.998002
vt 3.998002 3.998002
vt 3.998002 3.998002
vt 0.001998 3.998001
vt 0.001998 3.998001
vt 0.001998 3.998001
vt 0.002000 0.001998
vt 0.002000 0.001998
vt 0.002000 0.001998
vt 3.998002 0.001999
vt 3.998002 0.001999
vt 3.998002 0.001999
vt 3.998002 3.998001
vt 3.998002 3.998001
vt 3.998002 3.998001
vt 2.000000 0.001999
vt 2.000000 0.001999
vt 0.001999 2.000000
vt 0.001999 2.000000
vt 2.000000 3.998002
vt 2.000000 3.998002
vt 3.998001 2.000000
vt 3.998001 2.000000
vt 2.000000 2.000000
vt 1.000999 0.001999
vt 1.000999 0.001999
vt 2.999001 0.001999
vt 2.999001 0.001999
vt 0.001999 2.999001
vt 0.001999 2.999001
vt 0.001999 1.001000
vt 0.001999 1.001000
vt 1.001000 3.998002
vt 1.001000 3.998002
vt 2.999001 3.998002
vt 2.999001 3.998002
vt 3.998002 1.000999
vt 3.998002 1.000999
vt 3.998002 2.999001
vt 3.998002 2.999001
vt 2.000000 1.001000
vt 1.000999 2.000000
vt 2.000000 2.999001
vt 2.999001 2.000000
vt 1.000999 1.001000
vt 1.001000 2.999001
vt 2.999001 1.000999
vt 2.999001 2.999001
vt 0.001999 1.999999
vt 0.001999 1.999999
vt 2.000001 0.001999
vt 2.000001 0.001999
vt 3.998002 2.000000
vt 3.998002 2.000000
vt 2.000000 3.998001
vt 2.000000 3.998001
vt 2.000000 2.000000
vt 0.001998 2.999000
vt 0.001998 2.999000
vt 0.001999 1.000999
vt 0.001999 1.000999
vt 1.001000 0.001998
vt 1.001000 0.001998
vt 2.999001 0.001999
vt 2.999001 0.001999
vt 3.998002 1.000999
vt 3.998002 1.000999
vt 3.998002 2.999000
vt 3.998002 2.999000
vt 1.000999 3.998001
vt 1.000999 3.998001
vt 2.999001 3.998001
vt 2.999001 3.998001
vt 2.999001 2.000000
vt 2.000000 2.999000
vt 1.001000 2.000000
vt 2.000001 1.000999
vt 2.999001 2.999000
vt 1.000999 2.999000
vt 2.999001 1.000999
vt 1.001000 1.000999
g objCube.003
usemtl default
f 44/44/44 57/57/57 48/48/48
f 44/44/44 48/48/48 10/10/10
f 57/57/57 53/53/53 48/48/48
f 53/53/53 31/31/31 48/48/48
f 29/29/29 52/52/52 57/57/57
f 29/29/29 57/57/57 44/44/44
f 52/52/52 33/33/33 57/57/57
f 33/33/33 53/53/53 57/57/57
f 53/53/53 56/56/56 31/31/31
f 56/56/56 46/46/46 31/31/31
f 56/56/56 36/36/36 46/46/46
f 36/36/36 7/7/7 46/46/46
f 33/33/33 50/50/50 56/56/56
f 33/33/33 56/56/56 53/53/53
f 50/50/50 25/25/25 36/36/36
f 50/50/50 36/36/36 56/56/56
f 42/42/42 55/55/55 29/29/29
f 55/55/55 52/52/52 29/29/29
f 55/55/55 51/51/51 33/33/33
f 55/55/55 33/33/33 52/52/52
f 1/1/1 38/38/38 55/55/55
f 1/1/1 55/55/55 42/42/42
f 38/38/38 27/27/27 51/51/51
f 38/38/38 51/51/51 55/55/55
f 51/51/51 54/54/54 50/50/50
f 51/51/51 50/50/50 33/33/33
f 54/54/54 34/34/34 25/25/25
f 54/54/54 25/25/25 50/50/50
f 27/27/27 40/40/40 54/54/54
f 27/27/27 54/54/54 51/51/51
f 40/40/40 4/4/4 34/34/34
f 40/40/40 34/34/34 54/54/54
f 69/69/69 90/90/90 71/71/71
f 69/69/69 71/71/71 16/16/16
f 90/90/90 86/86/86 60/60/60
f 90/90/90 60/60/60 71/71/71
f 58/58/58 85/85/85 69/69/69
f 85/85/85 90/90/90 69/69/69
f 85/85/85 66/66/66 90/90/90
f 66/66/66 86/86/86 90/90/90
f 86/86/86 89/89/89 73/73/73
f 86/86/86 73/73/73 60/60/60
f 89/89/89 75/75/75 19/19/19
f 89/89/89 19/19/19 73/73/73
f 66/66/66 83/83/83 89/89/89
f 66/66/66 89/89/89 86/86/86
f 83/83/83 62/62/62 75/75/75
f 83/83/83 75/75/75 89/89/89
f 67/67/67 88/88/88 58/58/58
f 88/88/88 85/85/85 58/58/58
f 88/88/88 84/84/84 85/85/85
f 84/84/84 66/66/66 85/85/85
f 13/13/13 79/79/79 67/67/67
f 79/79/79 88/88/88 67/67/67
f 79/79/79 64/64/64 88/88/88
f 64/64/64 84/84/84 88/88/88
f 84/84/84 87/87/87 66/66/66
f 87/87/87 83/83/83 66/66/66
f 87/87/87 77/77/77 83/83/83
f 77/77/77 62/62/62 83/83/83
f 64/64/64 81/81/81 84/84/84
f 81/81/81 87/87/87 84/84/84
f 81/81/81 22/22/22 77/77/77
f 81/81/81 77/77/77 87/87/87
f 2/2/2 43/43/43 80/80/80
f 2/2/2 80/80/80 14/14/14
f 30/30/30 65/65/65 43/43/43
f 65/65/65 80/80/80 43/43/43
f 30/30/30 45/45/45 82/82/82
f 30/30/30 82/82/82 65/65/65
f 11/11/11 23/23/23 82/82/82
f 11/11/11 82/82/82 45/45/45
f 12/12/12 49/49/49 24/24/24
f 49/49/49 78/78/78 24/24/24
f 32/32/32 63/63/63 78/78/78
f 32/32/32 78/78/78 49/49/49
f 32/32/32 47/47/47 63/63/63
f 47/47/47 76/76/76 63/63/63
f 8/8/8 20/20/20 47/47/47
f 20/20/20 76/76/76 47/47/47
f 9/9/9 37/37/37 74/74/74
f 9/9/9 74/74/74 21/21/21
f 26/26/26 61/61/61 37/37/37
f 61/61/61 74/74/74 37/37/37
f 26/26/26 35/35/35 72/72/72
f 26/26/26 72/72/72 61/61/61
f 5/5/5 17/17/17 35/35/35
f 17/17/17 72/72/72 35/35/35
f 6/6/6 41/41/41 70/70/70
f 6/6/6 70/70/70 18/18/18
f 28/28/28 59/59/59 41/41/41
f 59/59/59 70/70/70 41/41/41
f 28/28/28 39/39/39 68/68/68
f 28/28/28 68/68/68 59/59/59
f 3/3/3 15/15/15 39/39/39
f 15/15/15 68/68/68 39/39/39
